<?xml version="1.0" encoding="UTF-8"?> <svg xmlns="http://www.w3.org/2000/svg" width="624" height="582" viewBox="0 0 624 582" fill="none"><path d="M487.82 444.628C402.596 475.55 299.684 443.213 217.676 402.241C-110.823 273.006 91.8978 -8.37747 317.195 10.0985C542.492 28.5744 745.791 350.4 487.82 444.628Z" fill="white"></path><g opacity="0.9"><path d="M487.82 444.628C402.596 475.55 299.684 443.213 217.676 402.241C-110.823 273.006 91.8978 -8.37746 317.195 10.0985C542.492 28.5744 745.791 350.4 487.82 444.628Z" fill="white"></path></g><path d="M311.776 581.388C139.587 581.388 0.000488281 573.239 0.000488281 563.186C0.000488281 553.133 139.587 544.983 311.776 544.983C483.964 544.983 623.551 553.133 623.551 563.186C623.551 573.239 483.964 581.388 311.776 581.388Z" fill="white"></path><path d="M314.094 100.886C314.094 100.886 320.735 102.494 322.986 96.3675C322.713 91.8491 316.297 87.0251 316.297 87.0251C316.297 87.0251 324.562 78.4223 319.722 70.8003C314.882 63.1784 296.84 69.8195 299.928 83.5518C300.66 87.3916 302.34 90.9879 304.813 94.0148C307.287 97.0417 310.477 99.4034 314.094 100.886Z" fill="white"></path><path d="M304.72 63.3874C314.497 62.5512 321.427 53.3856 318.211 45.4421C314.995 37.4986 306.553 36.373 306.553 36.373C306.553 36.373 309.512 24.4416 289.428 25.117C269.344 25.7923 245.884 45.0883 247.62 71.4595C230.093 85.9315 250.466 127.321 284.508 113.879C315.365 101.738 304.72 63.3874 304.72 63.3874Z" fill="#9D7B5F"></path><path opacity="0.6" d="M304.72 63.3874C314.497 62.5512 321.427 53.3856 318.211 45.4421C314.995 37.4986 306.553 36.373 306.553 36.373C306.553 36.373 309.512 24.4416 289.428 25.117C269.344 25.7923 245.884 45.0883 247.62 71.4595C230.093 85.9315 250.466 127.321 284.508 113.879C315.365 101.738 304.72 63.3874 304.72 63.3874Z" fill="white"></path><path d="M370.455 523.324L344.872 523.581L348.94 553.795L370.326 553.634L370.455 523.324Z" fill="#B55B52"></path><path opacity="0.2" d="M370.455 523.34L344.856 523.581L347.139 540.513L370.375 540.304L370.455 523.34Z" fill="black"></path><path d="M283.8 124.893C283.8 124.893 289.701 127.112 293.319 123.526C294.091 120.6 289.267 116.339 289.267 116.339C289.267 116.339 299.204 112.238 296.455 106.466C293.705 100.693 276.001 99.6638 274.682 113.219C273.766 122.578 283.8 124.893 283.8 124.893Z" fill="white"></path><path d="M327.168 405.634C314.69 366.849 296.15 326.36 308.467 289.408L379.927 289.183C379.927 289.183 380.538 374.117 381.856 409.911C383.239 447.12 374.186 535.11 374.186 535.11H344.872C344.872 535.11 324.997 447.185 327.168 405.634Z" fill="#9D7B5F"></path><path opacity="0.2" d="M305.185 328.337C307.243 346.251 313.225 364.517 319.384 382.656C326.813 345.479 316.602 332.39 305.185 328.337Z" fill="black"></path><path d="M345.788 563.154H352.558L353.957 560.902L356.996 563.186H390.764C390.918 560.748 390.359 558.317 389.156 556.191C389.156 556.191 378.591 553.795 374.153 549.872C373.726 549.547 373.23 549.323 372.704 549.217C372.178 549.111 371.634 549.126 371.114 549.261C366.628 550.145 354.745 552.107 347.943 549.55C347.786 549.499 347.619 549.486 347.456 549.512C347.293 549.538 347.139 549.603 347.005 549.7C346.872 549.797 346.764 549.925 346.689 550.072C346.614 550.219 346.576 550.382 346.576 550.547C346.647 554.763 346.383 558.979 345.788 563.154Z" fill="#263238"></path><path d="M274.65 523.324L249.019 523.581L247.893 553.795L269.312 553.634L274.65 523.324Z" fill="#B55B52"></path><path opacity="0.2" d="M274.65 523.34L249.003 523.581L248.392 540.513L271.659 540.304L274.65 523.34Z" fill="black"></path><path d="M246.767 405.634C244.709 366.849 241.943 308.816 254.903 290.967L334.725 289.183C334.725 289.183 312.518 374.117 304.173 409.911C295.554 447.12 274.441 535.11 274.441 535.11H246.735C246.735 535.11 236.363 449.918 246.767 405.634Z" fill="#9D7B5F"></path><path d="M338.971 175.481L341.158 177.089L343.136 178.52C344.454 179.437 345.773 180.289 347.107 181.141C349.744 182.862 352.478 184.357 355.26 185.965C358.042 187.573 360.904 188.844 363.831 190.162C366.757 191.481 369.764 192.671 372.868 193.716C376.034 194.816 379.254 195.755 382.516 196.53C385.903 197.309 389.334 197.884 392.791 198.251C396.426 198.661 400.089 198.763 403.741 198.556C407.599 198.3 411.426 197.691 415.174 196.739L416.493 196.385C418.397 195.894 420.152 194.944 421.606 193.62C425.342 190.126 428.671 186.221 431.527 181.978C432.91 180.032 434.116 178.054 435.258 176.076C436.4 174.098 437.525 172.121 438.474 170.127C440.469 166.179 442.262 162.132 443.845 158.002C445.437 153.874 446.779 149.653 447.865 145.363C448.338 143.471 448.167 141.475 447.378 139.691C446.59 137.907 445.228 136.438 443.51 135.515C441.791 134.592 439.814 134.269 437.891 134.596C435.969 134.924 434.21 135.884 432.894 137.323L432.508 137.758C429.919 140.604 427.298 143.804 424.709 146.746C423.423 148.258 422.104 149.737 420.818 151.2C419.532 152.664 418.245 154.111 416.943 155.51C414.402 158.356 411.749 161.009 409.208 163.437C406.951 165.631 404.497 167.612 401.876 169.355L408.308 166.251C404.628 166.569 400.921 166.336 397.309 165.56C395.231 165.149 393.18 164.612 391.167 163.952C389.06 163.325 386.921 162.521 384.735 161.652C380.331 159.808 376.036 157.714 371.871 155.381C369.732 154.207 367.642 152.937 365.551 151.667L362.48 149.737L361 148.788L359.778 147.968L358.83 147.341C355.088 144.903 350.548 144.009 346.162 144.847C341.776 145.684 337.884 148.188 335.305 151.833C332.725 155.478 331.657 159.981 332.326 164.396C332.995 168.811 335.347 172.796 338.89 175.513L338.971 175.481Z" fill="#B55B52"></path><path d="M437.331 151.152L431.414 142.131C428.97 131.052 443.747 130.361 443.747 130.361L450.726 127.145C451.992 126.663 453.388 126.645 454.666 127.096C455.944 127.546 457.021 128.435 457.705 129.605L461.885 135.876C462.826 137.116 463.244 138.674 463.052 140.218C462.86 141.762 462.072 143.17 460.856 144.141L455.325 147.888C453.709 148.981 451.847 149.656 449.906 149.85L437.331 151.152Z" fill="#B55B52"></path><path d="M527.637 137.886H375.214L405.429 125.729H497.422L527.637 137.886Z" fill="#9D7B5F"></path><path opacity="0.7" d="M527.637 137.886H375.214L405.429 125.729H497.422L527.637 137.886Z" fill="white"></path><path opacity="0.7" d="M383.03 137.886L405.735 128.752H497.133L519.822 137.886H383.03Z" fill="white"></path><path d="M524.614 141.552H378.237L375.214 137.886H527.637L524.614 141.552Z" fill="#9D7B5F"></path><path d="M451.434 134.847C463.237 134.847 483.996 136.359 490.927 132.805C497.857 129.251 486.36 98.667 451.434 98.667C416.509 98.667 404.995 129.219 411.926 132.805C418.856 136.391 439.616 134.847 451.434 134.847Z" fill="#9D7B5F"></path><path opacity="0.1" d="M424.049 121.935C429.324 118.719 430.272 107.463 437.975 100.372C433.177 101.593 428.632 103.651 424.548 106.45C420.206 114.249 419.016 125.054 424.049 121.935Z" fill="black"></path><path opacity="0.1" d="M451.434 98.6671C449.544 98.6635 447.654 98.7602 445.774 98.9565C441.818 116.645 449.087 121.838 451.434 121.838C453.782 121.838 461.082 116.596 457.078 98.9565C455.203 98.7602 453.319 98.6635 451.434 98.6671Z" fill="black"></path><path opacity="0.1" d="M478.319 106.45C474.224 103.658 469.675 101.596 464.876 100.355C472.579 107.415 473.527 118.671 478.802 121.935C483.835 125.054 482.645 114.249 478.319 106.45Z" fill="black"></path><path opacity="0.3" d="M452.494 86.0764C452.614 81.7238 453.273 77.4029 454.456 73.2124C455.824 69.2459 457.474 65.3823 459.392 61.6509C461.543 57.3769 462.915 52.7541 463.445 47.999C463.86 43.1439 462.777 38.2781 460.341 34.0576C459.864 38.4237 458.959 42.7323 457.64 46.9216C456.164 50.886 454.473 54.767 452.574 58.5475C450.385 62.8384 449.047 67.5125 448.635 72.3119C448.376 77.1993 449.732 82.036 452.494 86.0764Z" fill="#9D7B5F"></path><path opacity="0.3" d="M435.819 94.7271C435.898 92.168 436.297 89.6289 437.009 87.1695C437.818 84.8312 438.79 82.5528 439.92 80.3516C441.186 77.8348 441.992 75.112 442.3 72.3116C442.544 69.4404 441.892 66.5642 440.434 64.0786C440.143 66.6437 439.605 69.1747 438.826 71.6362C437.948 73.9644 436.95 76.2455 435.835 78.4702C434.561 80.9782 433.78 83.7077 433.536 86.5102C433.358 89.4273 434.162 92.3199 435.819 94.7271Z" fill="#9D7B5F"></path><path opacity="0.3" d="M465.68 89.1153C465.762 86.5577 466.156 84.0198 466.854 81.5578C467.662 79.2247 468.635 76.9517 469.764 74.7559C471.038 72.2421 471.844 69.5179 472.144 66.7159C472.385 63.8521 471.74 60.9834 470.295 58.499C470.005 61.0592 469.467 63.585 468.687 66.0405C467.812 68.3752 466.813 70.6618 465.696 72.8906C464.397 75.4187 463.61 78.1782 463.38 81.011C463.222 83.8933 464.031 86.7459 465.68 89.1153Z" fill="#9D7B5F"></path><path d="M331.847 130.569C349.149 131.904 395.202 161.523 395.202 161.523C402.245 168.47 401.248 192.992 390.667 198.845C390.667 198.845 355.131 192.188 343.376 180.353C330.576 167.505 313.516 129.154 331.847 130.569Z" fill="#9D7B5F"></path><g opacity="0.6"><path d="M331.847 130.569C349.149 131.904 395.202 161.523 395.202 161.523C402.245 168.47 401.248 192.992 390.667 198.845C390.667 198.845 355.131 192.188 343.376 180.353C330.576 167.505 313.516 129.154 331.847 130.569Z" fill="white"></path></g><path d="M333.712 130.747C310.003 128.504 286.119 128.886 262.494 131.888C259.262 132.368 256.163 133.502 253.385 135.221C250.607 136.94 248.209 139.207 246.337 141.885C244.466 144.563 243.161 147.595 242.503 150.795C241.844 153.995 241.845 157.295 242.506 160.495C253.569 216.276 248.102 283.474 249.26 294.505C249.26 294.505 356.498 327.71 381.245 292.897C388.529 224.589 364.023 167.875 352.831 144.27C351.07 140.566 348.387 137.377 345.039 135.009C341.691 132.641 337.791 131.173 333.712 130.747Z" fill="#9D7B5F"></path><path opacity="0.6" d="M333.712 130.747C310.003 128.504 286.119 128.886 262.494 131.888C259.262 132.368 256.163 133.502 253.385 135.221C250.607 136.94 248.209 139.207 246.337 141.885C244.466 144.563 243.161 147.595 242.503 150.795C241.844 153.995 241.845 157.295 242.506 160.495C253.569 216.276 248.102 283.474 249.26 294.505C249.26 294.505 356.498 327.71 381.245 292.897C388.529 224.589 364.023 167.875 352.831 144.27C351.07 140.566 348.387 137.377 345.039 135.009C341.691 132.641 337.791 131.173 333.712 130.747Z" fill="white"></path><path d="M322.52 132.981C320.58 130.75 318.1 129.056 315.316 128.061C314.162 125.062 314.077 121.757 315.075 118.702L279.988 107.527C282.818 119.121 285.246 126.823 280.921 132.387C283.526 135.908 299.364 140.877 313.579 141.616C325.575 142.244 325.028 136.165 322.52 132.981Z" fill="#B55B52"></path><path d="M282.835 128.19C283.703 131.004 301.6 140.137 317.52 141.552C312.891 144.311 309.023 148.18 306.264 152.808C300.047 151.416 294.212 148.679 289.167 144.79C284.122 140.901 279.99 135.953 277.062 130.296C278.944 127.804 282.835 128.19 282.835 128.19Z" fill="#9D7B5F"></path><path opacity="0.5" d="M296.84 166.653C297.306 169.097 299.107 170.818 300.876 170.48C302.645 170.143 303.706 167.908 303.24 165.447C302.773 162.987 300.989 161.283 299.22 161.62C297.451 161.958 296.39 164.193 296.84 166.653Z" fill="#9D7B5F"></path><path opacity="0.5" d="M300.715 189.519C300.924 191.995 302.532 193.893 304.317 193.764C306.102 193.635 307.404 191.481 307.212 188.94C307.019 186.399 305.411 184.566 303.61 184.695C301.809 184.823 300.522 187.043 300.715 189.519Z" fill="#9D7B5F"></path><path opacity="0.5" d="M331.654 164.402C332.121 166.846 333.922 168.551 335.691 168.229C337.459 167.907 338.521 165.64 338.07 163.196C337.62 160.752 335.803 159.031 334.034 159.369C332.266 159.707 331.204 161.942 331.654 164.402Z" fill="#9D7B5F"></path><path opacity="0.5" d="M335.544 187.268C335.737 189.744 337.345 191.641 339.146 191.497C340.947 191.352 342.234 189.229 342.025 186.673C341.816 184.116 340.224 182.283 338.423 182.427C336.622 182.572 335.335 184.775 335.544 187.268Z" fill="#9D7B5F"></path><path d="M315.316 128.061C317.02 129.782 327.44 137.291 317.583 141.552C322.147 143.584 325.968 146.984 328.517 151.281C328.517 151.281 336.799 138.417 320.622 129.235C318.889 128.696 317.114 128.303 315.316 128.061Z" fill="#9D7B5F"></path><path opacity="0.2" d="M314.801 119.78L288.462 118.172C296.695 126.968 309.173 130.28 314.865 126.694C314.265 124.431 314.243 122.054 314.801 119.78Z" fill="black"></path><path d="M273.187 89.6458C277.287 105.951 280.423 116.982 291.293 122.143C312.905 132.451 322.665 121.307 323.453 104.053C324.241 88.5202 317.407 64.4484 300.024 61.0395C296.179 60.2967 292.208 60.5401 288.482 61.7469C284.756 62.9538 281.396 65.0849 278.716 67.9412C276.037 70.7976 274.124 74.2862 273.157 78.0816C272.19 81.877 272.201 85.8554 273.187 89.6458Z" fill="#B55B52"></path><path d="M276.902 101.304C276.902 101.304 283.608 102.671 285.602 96.4802C285.151 91.9617 278.542 87.4271 278.542 87.4271C278.542 87.4271 286.454 78.4866 281.308 71.0577C276.163 63.6287 258.394 71.0577 262.012 84.6131C262.907 88.4155 264.738 91.9339 267.338 94.8488C269.939 97.7638 273.226 99.9827 276.902 101.304Z" fill="white"></path><path d="M270.148 97.4771C270.148 97.4771 276.403 62.5192 312.293 68.1793C313.162 63.0176 308.37 55.7173 308.37 55.7173C296.826 53.6468 284.925 55.9822 275.02 62.2619C270.16 65.2189 266.079 69.2986 263.122 74.1587C260.165 79.0187 258.416 84.5173 258.023 90.1928C258.023 90.1928 259.888 96.2711 270.148 97.4771Z" fill="#9D7B5F"></path><path opacity="0.5" d="M270.148 97.4771C270.148 97.4771 276.403 62.5192 312.293 68.1793C313.162 63.0176 308.37 55.7173 308.37 55.7173C296.826 53.6468 284.925 55.9822 275.02 62.2619C270.16 65.2189 266.079 69.2986 263.122 74.1587C260.165 79.0187 258.416 84.5173 258.023 90.1928C258.023 90.1928 259.888 96.2711 270.148 97.4771Z" fill="white"></path><path opacity="0.2" d="M295.426 88.7937C293.445 88.2784 291.341 88.5674 289.573 89.5977C291.557 89.709 293.545 89.436 295.426 88.7937Z" fill="black"></path><path opacity="0.2" d="M295.521 90.2089C294.598 90.1648 293.676 90.3234 292.821 90.6734C291.965 91.0234 291.197 91.5564 290.569 92.2349C292.345 91.9208 294.034 91.23 295.521 90.2089Z" fill="black"></path><path opacity="0.2" d="M318.21 84.7739C318.21 84.7739 319.432 83.0373 320.525 83.8252C320.222 84.13 319.861 84.371 319.464 84.534C319.066 84.6969 318.64 84.7785 318.21 84.7739Z" fill="black"></path><path opacity="0.2" d="M318.581 86.0603C318.581 86.0603 319.562 84.4523 320.398 85.8352C320.154 86.0531 319.85 86.1914 319.525 86.2316C319.2 86.2718 318.871 86.212 318.581 86.0603Z" fill="black"></path><path opacity="0.2" d="M309.801 69.6746C304.854 69.0879 299.847 69.2778 294.959 70.2374C299.913 70.3274 304.868 70.1395 309.801 69.6746Z" fill="black"></path><path opacity="0.2" d="M311.939 71.9741C311.939 71.9741 300.587 72.553 295.184 75.6243C300.871 74.931 306.48 73.709 311.939 71.9741Z" fill="black"></path><path d="M268.362 107.35C269.675 108.976 271.298 110.325 273.136 111.319C274.975 112.313 276.992 112.931 279.072 113.139C284.652 113.669 286.501 108.427 284.153 103.668C282.047 99.3903 276.595 94.0196 271.386 95.6276C266.176 97.2356 265.146 103.298 268.362 107.35Z" fill="#B55B52"></path><path d="M299.959 88.8583C300.217 90.1929 301.133 91.1417 302.018 90.9809C302.902 90.8201 303.401 89.5819 303.143 88.2312C302.886 86.8805 301.986 85.9317 301.101 86.1086C300.217 86.2855 299.718 87.5076 299.959 88.8583Z" fill="#263238"></path><path d="M314.256 86.3817C314.513 87.7324 315.413 88.6812 316.298 88.5043C317.182 88.3274 317.681 87.1053 317.439 85.7546C317.198 84.4039 316.266 83.4552 315.397 83.6321C314.529 83.8089 313.998 85.031 314.256 86.3817Z" fill="#263238"></path><path d="M301.295 102.011C296.471 105.067 290.569 102.88 290.569 99.6315C285.536 102.848 286.099 108.894 293.448 111.868C301.713 115.197 312.229 115.374 316.555 107.044L314.352 98.8436C310.557 96.2547 306.183 98.924 301.295 102.011Z" fill="white"></path><path d="M325.591 100.613C328.919 102.349 329.884 100.034 329.546 97.4771C335.319 100.195 333.438 106.45 329.08 108.974C323.822 112.013 315.316 110.582 315.219 106.594L313.611 98.3775C317.358 96.3354 320.622 98.0881 325.591 100.613Z" fill="white"></path><path d="M309.914 89.1152L311.329 96.5603C311.451 97.219 311.824 97.8042 312.371 98.1916C312.917 98.5789 313.593 98.7379 314.255 98.6346C315.804 98.4572 317.271 97.8439 318.484 96.8658C316.024 92.1222 309.914 89.1152 309.914 89.1152Z" fill="#A02724"></path><path d="M295.153 86.5909C295.02 86.623 294.883 86.623 294.751 86.5909C294.551 86.5214 294.387 86.3762 294.294 86.1866C294.2 85.9971 294.185 85.7784 294.252 85.5779C294.623 84.351 295.283 83.2308 296.175 82.3105C297.067 81.3902 298.167 80.6966 299.382 80.2876C299.586 80.2333 299.804 80.262 299.988 80.3674C300.171 80.4728 300.306 80.6463 300.362 80.8504C300.417 81.0593 300.386 81.2811 300.278 81.4677C300.169 81.6544 299.992 81.7908 299.784 81.8473C298.828 82.1855 297.965 82.7448 297.266 83.4798C296.568 84.2148 296.053 85.1045 295.764 86.0764C295.714 86.2071 295.632 86.323 295.525 86.4131C295.418 86.5031 295.29 86.5644 295.153 86.5909Z" fill="#263238"></path><path d="M320.622 79.403C320.49 79.4159 320.356 79.3962 320.233 79.3458C320.11 79.2954 320 79.2156 319.915 79.1136C319.307 78.3107 318.515 77.6663 317.605 77.2352C316.695 76.8041 315.695 76.599 314.689 76.6373C314.476 76.6586 314.263 76.5943 314.097 76.4586C313.931 76.3229 313.826 76.1269 313.804 75.9137C313.783 75.7004 313.847 75.4875 313.983 75.3216C314.119 75.1557 314.315 75.0506 314.528 75.0293C315.799 74.9695 317.065 75.2159 318.221 75.7475C319.377 76.2792 320.388 77.0807 321.169 78.0845C321.303 78.2517 321.367 78.4648 321.346 78.6783C321.325 78.8917 321.221 79.0883 321.057 79.2261C320.93 79.3217 320.78 79.3827 320.622 79.403Z" fill="#263238"></path><path d="M244.243 563.154H249.807L251.319 560.903L254.245 563.186H287.901C288.187 560.795 287.797 558.371 286.775 556.191C286.775 556.191 277.658 553.795 272.544 549.55C272.39 549.378 272.198 549.243 271.983 549.157C271.768 549.07 271.537 549.034 271.306 549.052C267.961 549.759 254.663 552.268 247.331 549.647C247.152 549.583 246.961 549.563 246.774 549.587C246.586 549.611 246.406 549.68 246.25 549.786C246.093 549.892 245.964 550.034 245.872 550.2C245.781 550.366 245.73 550.551 245.723 550.74C245.546 554.909 245.052 559.059 244.243 563.154Z" fill="#263238"></path><path d="M265.742 130.714C271.772 140.25 306.36 205.117 246.945 272.218C244.581 275.241 245.594 282.622 245.594 282.622C245.594 282.622 232.843 407.934 235.11 454.019C273.123 452.25 345.933 437.392 389.349 445.706C395.781 413.224 380.135 302.497 383.496 285.742C384.493 280.709 384.606 267.555 382.564 265.593C377.305 260.576 376.534 242.519 371.822 218.961C366.821 193.989 348.828 143.562 335.144 130.521C333.398 129.923 331.539 129.73 329.709 129.959C329.709 129.959 347.718 152.181 358.653 196.964C351.947 198.829 310.316 198.829 288.898 197.125C289.669 179.437 280.23 141.617 271.097 129.91C269.273 129.739 267.435 130.015 265.742 130.714Z" fill="#263238"></path><path d="M231.073 311.309C242.136 311.309 249.227 285.259 250.031 282.204C250.096 281.909 250.076 281.601 249.973 281.317C249.871 281.032 249.69 280.783 249.453 280.596C249.203 280.428 248.909 280.338 248.608 280.338C248.308 280.338 248.014 280.428 247.764 280.596C234.241 289.119 224.336 301.211 225.686 307.562C225.897 308.576 226.438 309.491 227.223 310.166C228.008 310.84 228.994 311.237 230.028 311.293C230.376 311.322 230.725 311.327 231.073 311.309ZM245.963 285.372C243.133 294.28 236.991 309.235 230.462 308.27C228.854 308.029 228.693 307.225 228.629 306.887C227.857 303.269 234.08 293.75 245.963 285.372Z" fill="#263238"></path><path d="M222.937 294.57C231.814 294.57 246.076 285.324 249.405 283.072C249.648 282.912 249.839 282.685 249.955 282.418C250.071 282.151 250.106 281.856 250.056 281.569C250.007 281.282 249.875 281.016 249.676 280.803C249.478 280.591 249.221 280.44 248.939 280.371C236.429 277.155 220.091 280.291 216.57 286.465C215.979 287.476 215.767 288.664 215.974 289.816C216.18 290.969 216.79 292.01 217.695 292.753C218.403 293.391 219.232 293.88 220.132 294.192C221.033 294.505 221.986 294.633 222.937 294.57ZM244.645 282.574C235.351 288.331 223.05 293.83 219.834 290.614C218.612 289.392 218.821 288.572 219.175 287.945C221.265 284.295 233.132 280.837 244.645 282.574Z" fill="#263238"></path><path d="M234.692 159.192L233.582 161.524L232.618 163.662C231.991 165.077 231.412 166.492 230.833 167.907C229.691 170.737 228.678 173.6 227.617 176.478C225.674 182.305 224.064 188.237 222.793 194.246C222.15 197.302 221.587 200.373 221.185 203.508C220.783 206.644 220.429 209.844 220.22 213.156C220.011 216.469 219.914 219.701 220.059 223.078C220.213 226.536 220.562 229.982 221.104 233.401L221.313 234.671C221.384 235.126 221.497 235.573 221.651 236.006C222.923 239.724 224.827 243.195 227.279 246.265C229.338 248.824 231.667 251.152 234.226 253.212C236.474 255.014 238.867 256.627 241.381 258.036C243.704 259.377 246.098 260.59 248.553 261.67C253.202 263.661 258.004 265.275 262.912 266.494C265.292 267.105 267.736 267.603 270.116 268.102C271.322 268.311 272.544 268.504 273.75 268.665L277.577 269.099C279.562 269.355 281.574 268.915 283.271 267.855C284.967 266.794 286.244 265.178 286.883 263.282C287.522 261.385 287.484 259.326 286.775 257.455C286.067 255.584 284.731 254.016 282.996 253.019L282.208 252.552L276.838 249.336C275.005 248.259 273.204 247.133 271.451 246.008C268.026 243.86 264.714 241.536 261.529 239.045C258.741 236.943 256.196 234.538 253.94 231.874C253.14 230.921 252.47 229.866 251.946 228.738C251.64 228.195 251.506 227.573 251.56 226.953L252.091 229.542C252.011 225.117 252.323 220.694 253.023 216.324C253.826 211.546 254.872 206.813 256.159 202.142C257.51 197.318 258.989 192.494 260.709 187.67C261.529 185.274 262.462 182.846 263.347 180.514L264.713 176.993L266.016 173.777L266.37 172.876C267.954 168.718 267.872 164.109 266.142 160.01C264.411 155.91 261.165 152.637 257.08 150.873C252.995 149.108 248.387 148.988 244.216 150.538C240.045 152.088 236.633 155.188 234.692 159.192Z" fill="#B55B52"></path><path d="M251.446 136.68C218.595 158.356 218.112 218.559 218.112 218.559C224.544 228.448 244.532 229.172 255.466 223.817C255.466 223.817 270.79 191.432 272.8 174.87C274.987 156.796 266.754 126.469 251.446 136.68Z" fill="#9D7B5F"></path><g opacity="0.6"><path d="M251.446 136.68C218.595 158.356 218.112 218.559 218.112 218.559C224.544 228.448 244.532 229.172 255.466 223.817C255.466 223.817 270.79 191.432 272.8 174.87C274.987 156.796 266.754 126.469 251.446 136.68Z" fill="white"></path></g><path d="M243.005 230.314C232.585 230.314 218.66 225.136 215.878 219.235C214.27 210.487 216.248 203.702 218.033 201.74C226.957 200.823 258.603 211.388 261.803 214.298C260.16 219.217 257.809 223.87 254.824 228.111C251.08 229.658 247.055 230.408 243.005 230.314Z" fill="#9D7B5F"></path><path opacity="0.5" d="M243.005 230.314C232.585 230.314 218.66 225.136 215.878 219.235C214.27 210.487 216.248 203.702 218.033 201.74C226.957 200.823 258.603 211.388 261.803 214.298C260.16 219.217 257.809 223.87 254.824 228.111C251.08 229.658 247.055 230.408 243.005 230.314Z" fill="white"></path><path d="M244.244 126.936L188.221 163.92C185.661 165.609 182.793 166.777 179.781 167.357C176.77 167.937 173.673 167.919 170.669 167.302C167.664 166.685 164.811 165.483 162.271 163.763C159.731 162.043 157.556 159.839 155.868 157.278L114.06 93.9394C105.768 81.3441 102.812 65.973 105.842 51.2005C108.872 36.428 117.639 23.4615 130.22 15.1474C142.806 6.84729 158.17 3.87889 172.942 6.89349C187.713 9.9081 200.686 18.6595 209.012 31.2274L250.82 94.5826C254.238 99.7452 255.464 106.054 254.231 112.121C252.998 118.188 249.405 123.517 244.244 126.936Z" fill="#263238"></path><path d="M129.159 11.3364C138.872 4.90398 150.264 1.47558 161.914 1.47936V3.658e-08C149.967 -0.0004142 138.284 3.51733 128.323 10.1143L129.159 11.3364Z" fill="#9D7B5F"></path><path d="M187.031 6.99459L187.658 5.64387C183.14 3.54913 178.383 2.01548 173.492 1.07715L173.202 2.55651C177.976 3.46652 182.62 4.95695 187.031 6.99459Z" fill="#9D7B5F"></path><path d="M244.677 126.678L189.747 162.922C184.687 166.274 178.502 167.48 172.553 166.274C166.604 165.068 161.377 161.549 158.022 156.49L115.377 91.8488C111.331 85.7293 108.531 78.8719 107.138 71.6691C105.745 64.4662 105.785 57.0593 107.258 49.8723C108.731 42.6852 111.606 35.8592 115.72 29.7847C119.834 23.7103 125.105 18.5067 131.232 14.4718C137.347 10.435 144.198 7.6425 151.392 6.25375C158.586 4.86501 165.984 4.90726 173.162 6.37812C180.34 7.84897 187.158 10.7196 193.226 14.826C199.295 18.9324 204.495 24.1942 208.529 30.3106L251.189 94.9523C252.845 97.4629 253.99 100.275 254.559 103.228C255.128 106.182 255.11 109.218 254.505 112.164C253.9 115.11 252.721 117.909 251.035 120.399C249.348 122.889 247.188 125.023 244.677 126.678Z" fill="#9D7B5F"></path><path d="M435.996 478.412C435.068 479.022 433.936 479.24 432.848 479.017C431.76 478.794 430.804 478.148 430.191 477.222L155.078 60.2517L162.089 55.6206L437.202 472.591C437.506 473.052 437.716 473.569 437.82 474.111C437.924 474.654 437.919 475.211 437.807 475.752C437.695 476.293 437.478 476.806 437.167 477.262C436.856 477.719 436.458 478.11 435.996 478.412Z" fill="#9D7B5F"></path><path d="M276.241 251.845L273.106 262.168C273.861 273.424 288.237 269.983 288.237 269.983L295.843 271.093C297.194 271.206 298.541 270.834 299.642 270.044C300.744 269.255 301.529 268.099 301.857 266.783L304.092 259.58C304.65 258.138 304.627 256.536 304.027 255.111C303.427 253.686 302.297 252.55 300.876 251.942L294.444 249.899C292.589 249.309 290.617 249.187 288.703 249.546L276.241 251.845Z" fill="#B55B52"></path><path d="M408.356 173.182C409.433 183.553 405.59 197.929 399.994 201.274C396.89 202.149 393.641 202.385 390.443 201.968C387.245 201.55 384.165 200.488 381.39 198.846C379.621 190.05 387.966 159.514 390.571 156.041C395.646 157.188 400.522 159.079 405.043 161.652C406.936 165.224 408.064 169.15 408.356 173.182Z" fill="#9D7B5F"></path><path opacity="0.5" d="M408.356 173.182C409.433 183.553 405.59 197.929 399.994 201.274C396.89 202.149 393.641 202.385 390.443 201.968C387.245 201.55 384.165 200.488 381.39 198.846C379.621 190.05 387.966 159.514 390.571 156.041C395.646 157.188 400.522 159.079 405.043 161.652C406.936 165.224 408.064 169.15 408.356 173.182Z" fill="white"></path></svg> 