<?xml version="1.0" encoding="UTF-8"?> <svg xmlns="http://www.w3.org/2000/svg" width="644" height="762" viewBox="0 0 644 762" fill="none"><path d="M379.573 603.58L392.344 600.014L387.482 569.488L374.711 573.054L379.573 603.58Z" fill="#FFC3BD"></path><path d="M275.863 623.057H289.122L291.972 592.348H278.713L275.863 623.057Z" fill="#FFC3BD"></path><path d="M289.963 621.518H273.809C273.544 621.516 273.287 621.606 273.081 621.773C272.875 621.94 272.734 622.173 272.681 622.432L270.06 634.213C269.998 634.499 270.001 634.797 270.07 635.082C270.139 635.367 270.271 635.633 270.457 635.861C270.643 636.088 270.878 636.27 271.145 636.393C271.411 636.517 271.702 636.579 271.995 636.575C277.192 636.483 280.987 636.178 287.54 636.178C291.578 636.178 303.725 636.59 309.287 636.59C314.85 636.59 315.581 631.088 313.311 630.601C303.085 628.36 295.388 625.282 292.127 622.341C291.531 621.81 290.761 621.517 289.963 621.518Z" fill="#263238"></path><path d="M391.839 598.551L377.88 602.453C377.626 602.522 377.405 602.677 377.252 602.89C377.099 603.104 377.025 603.364 377.041 603.626L377.681 615.681C377.697 615.973 377.779 616.258 377.92 616.514C378.062 616.77 378.259 616.991 378.498 617.16C378.737 617.328 379.012 617.441 379.3 617.488C379.589 617.536 379.885 617.517 380.166 617.434C385.164 615.91 392.358 613.624 398.682 611.856C406.074 609.798 409.228 609.112 417.9 606.705C423.142 605.181 423.127 599.527 420.795 599.664C410.127 600.258 405.311 601.599 395.192 598.688C394.109 598.33 392.948 598.282 391.839 598.551Z" fill="#263238"></path><path d="M316.569 200.193C316.417 200.193 316.661 200.193 316.752 200.193L317.179 200.269L318.154 200.437C318.825 200.543 319.541 200.68 320.257 200.757C321.705 200.939 323.214 201.046 324.738 201.107C327.823 201.213 330.911 201.152 333.989 200.924C335.513 200.741 337.128 200.635 338.683 200.36C340.237 200.086 341.822 199.888 343.392 199.583C344.961 199.278 346.44 198.867 348.086 198.547C349.732 198.227 351.134 197.693 352.764 197.282L348.345 208.788C347.092 206.074 345.624 203.465 343.956 200.985C342.205 198.396 340.297 195.917 338.241 193.563C336.168 191.155 333.912 188.824 331.565 186.568C330.392 185.456 329.203 184.313 327.969 183.246C326.734 182.179 325.408 181.082 324.296 180.198L324.006 179.954C323.276 179.234 322.81 178.29 322.681 177.273C322.552 176.256 322.769 175.225 323.296 174.346C323.823 173.467 324.631 172.791 325.589 172.426C326.547 172.061 327.6 172.029 328.578 172.334C330.341 173.031 332.065 173.819 333.745 174.696C335.375 175.55 337.006 176.418 338.591 177.378C341.787 179.303 344.843 181.452 347.735 183.81C350.688 186.22 353.44 188.865 355.965 191.719C358.551 194.639 360.848 197.804 362.823 201.168C363.345 202.065 363.686 203.057 363.825 204.086C363.964 205.115 363.898 206.161 363.632 207.165C363.366 208.169 362.904 209.11 362.274 209.935C361.643 210.76 360.856 211.453 359.958 211.973C359.604 212.185 359.231 212.363 358.845 212.507L358.357 212.705C356.559 213.375 354.776 214.107 352.962 214.747C351.149 215.387 349.305 215.981 347.415 216.454C343.649 217.507 339.815 218.296 335.939 218.816C331.993 219.321 328.014 219.52 324.037 219.41C322.025 219.334 319.998 219.167 317.941 218.907C316.905 218.77 315.868 218.618 314.801 218.405L313.186 218.054L312.317 217.841L311.22 217.521C309.951 217.287 308.746 216.787 307.684 216.053C306.622 215.32 305.727 214.37 305.058 213.267C304.389 212.163 303.962 210.93 303.803 209.649C303.645 208.368 303.76 207.069 304.14 205.835C304.52 204.602 305.157 203.463 306.008 202.494C306.86 201.524 307.908 200.746 309.082 200.21C310.256 199.674 311.53 199.393 312.82 199.384C314.111 199.376 315.389 199.641 316.569 200.162V200.193Z" fill="#263238"></path><path opacity="0.2" d="M387.482 569.488L389.981 585.231L377.21 588.797L374.695 573.054L387.482 569.488Z" fill="black"></path><path opacity="0.2" d="M278.713 592.363H291.971L290.493 608.182H277.234L278.713 592.363Z" fill="black"></path><path d="M331.764 211.744C337.753 228.371 340.253 257.16 343.712 312.786L273.517 322.951C271.734 313.563 270.865 271.257 258.704 227.777C257.969 225.203 257.774 222.505 258.13 219.852C258.486 217.199 259.387 214.648 260.774 212.359C262.162 210.07 264.007 208.092 266.195 206.55C268.382 205.007 270.864 203.932 273.486 203.393C286.518 200.862 299.734 199.394 313.004 199.004C317.074 198.882 321.079 200.048 324.447 202.336C327.816 204.623 330.376 207.916 331.764 211.744Z" fill="#9D7B5F"></path><path d="M332.664 172.578L329.052 164.5L317.195 170.505C317.5 172.675 318.349 174.732 319.662 176.485C320.976 178.239 322.712 179.631 324.709 180.533C325.535 180.867 326.433 180.982 327.317 180.867C328.2 180.752 329.04 180.411 329.753 179.878L330.957 178.994C331.931 178.28 332.632 177.254 332.943 176.087C333.253 174.92 333.155 173.681 332.664 172.578Z" fill="#FFC3BD"></path><path d="M325.895 155.814L315.867 161.666L317.193 170.505L329.065 164.501L325.895 155.814Z" fill="#FFC3BD"></path><path d="M275.012 170.688C277.892 178.918 281.672 193.365 278.563 201.717C278.2 202.689 278.179 203.756 278.503 204.742C278.827 205.728 279.477 206.574 280.346 207.142C286.618 211.668 294.342 213.715 302.032 212.888C311.892 211.821 311.816 206.456 309.302 202.631C308.968 202.123 308.533 201.689 308.025 201.356C307.516 201.023 306.944 200.798 306.345 200.696C296.653 199.05 294.839 191.018 295.586 183.672L275.012 170.688Z" fill="#FFC3BD"></path><path opacity="0.2" d="M283.394 176.022L295.586 183.642C295.433 185.442 295.433 187.252 295.586 189.052C291.41 189.052 285.649 186.37 283.394 182.118C281.961 179.527 282.388 176.494 283.394 176.022Z" fill="black"></path><path d="M295.004 157.81C285.647 152.232 280.511 140.695 281.288 138.135C282.065 135.575 296.772 131.064 298.784 132.131C308.827 137.19 302.517 151.074 302.517 151.074L306.007 155.646L295.004 157.81Z" fill="#263238"></path><path d="M269.403 157.353C272.954 170.033 274.402 177.622 282.312 182.804C294.199 190.622 308.784 181.28 309.073 167.838C309.332 155.646 303.465 137.023 289.795 134.63C286.783 134.087 283.683 134.323 280.789 135.316C277.895 136.309 275.303 138.025 273.259 140.302C271.216 142.58 269.789 145.342 269.114 148.326C268.439 151.311 268.539 154.418 269.403 157.353Z" fill="#FFC3BD"></path><path d="M268.701 166.421C259.938 159.959 253.095 149.657 254.238 147.264C257.286 140.924 268.107 136.276 275.01 139.644C285.145 144.505 276.87 160.523 276.87 160.523L279.918 165.46L268.701 166.421Z" fill="#263238"></path><path d="M271.916 144.292C283.941 145.329 301.345 134.737 302.747 125.684C298.403 123.2 291.423 126.294 291.423 126.294C291.423 126.294 293.999 120.198 292.947 117.013C288.193 117.211 278.393 122.651 277.006 125.136C277.11 123.621 276.794 122.108 276.092 120.762C272.008 120.762 244.53 135.224 258.856 145.146C269.905 147.112 271.916 144.292 271.916 144.292Z" fill="#263238"></path><path d="M265.715 170.688C268.035 173.043 271.189 174.39 274.494 174.437C278.883 174.437 279.919 170.246 277.725 166.71C275.759 163.54 271.095 159.7 267.163 161.376C263.231 163.053 262.896 167.747 265.715 170.688Z" fill="#FFC3BD"></path><path d="M394.676 580.476L373.051 586.496C373.051 586.496 351.715 510.296 344.735 469.559C342.632 457.169 338.045 440.04 332.543 421.752C325.487 398.709 317.074 373.867 310.247 354.421C303.023 333.939 297.598 319.476 297.598 319.476L343.775 312.801C343.775 312.801 365.324 403.494 372.731 443.27C380.488 484.632 394.676 580.476 394.676 580.476Z" fill="#263238"></path><path opacity="0.2" d="M332.512 421.752C325.486 398.709 317.074 373.868 310.246 354.421L314.3 343.753C326.781 356.509 333.106 398.602 332.512 421.752Z" fill="black"></path><path d="M321.69 315.986C321.69 315.986 317.361 430.926 314.634 469.682C311.586 512.11 296.879 603.397 296.879 603.397H272.602C272.602 603.397 276.716 518.907 281.273 477.683C286.47 430.713 273.531 322.966 273.531 322.966L321.69 315.986Z" fill="#263238"></path><path d="M298.832 605.272H270.242V596.722L302.216 596.173L298.832 605.272Z" fill="#9D7B5F"></path><path d="M396.396 580.705L370.625 587.898L368.309 579.577L395.542 571.53L396.396 580.705Z" fill="#9D7B5F"></path><path d="M290.295 156.728C290.523 157.78 291.255 158.511 291.94 158.359C292.626 158.207 292.992 157.247 292.763 156.195C292.535 155.143 291.803 154.427 291.118 154.58C290.432 154.732 290.066 155.692 290.295 156.728Z" fill="#263238"></path><path d="M297.595 170.688C297.809 171.739 298.555 172.471 299.241 172.319C299.927 172.166 300.293 171.206 300.064 170.154C299.836 169.103 299.104 168.387 298.418 168.539C297.733 168.691 297.367 169.697 297.595 170.688Z" fill="#263238"></path><path d="M302.107 154.183C302.336 155.219 303.067 155.951 303.753 155.798C304.439 155.646 304.805 154.686 304.576 153.649C304.347 152.613 303.616 151.866 302.93 152.019C302.244 152.171 301.878 153.131 302.107 154.183Z" fill="#263238"></path><path d="M297.809 155.524C299.748 158.447 302.081 161.088 304.743 163.373C303.219 165.507 299.942 165.4 299.942 165.4L297.809 155.524Z" fill="#ED847E"></path><path d="M285.176 152.705C285.071 152.727 284.962 152.727 284.856 152.705C284.709 152.629 284.596 152.501 284.539 152.346C284.483 152.19 284.487 152.019 284.552 151.867C284.956 150.956 285.569 150.154 286.343 149.526C287.116 148.898 288.027 148.463 289.002 148.255C289.084 148.243 289.167 148.247 289.248 148.267C289.328 148.288 289.404 148.324 289.47 148.373C289.537 148.423 289.593 148.485 289.635 148.556C289.678 148.627 289.706 148.706 289.718 148.788C289.73 148.87 289.726 148.954 289.705 149.034C289.685 149.115 289.649 149.19 289.6 149.257C289.55 149.323 289.488 149.379 289.417 149.422C289.346 149.464 289.267 149.492 289.185 149.504C288.415 149.677 287.698 150.029 287.091 150.532C286.485 151.036 286.006 151.676 285.695 152.4C285.641 152.49 285.565 152.566 285.475 152.619C285.384 152.672 285.281 152.702 285.176 152.705Z" fill="#263238"></path><path d="M305.674 148.423C305.57 148.433 305.464 148.416 305.368 148.373C305.272 148.33 305.188 148.263 305.126 148.179C304.661 147.55 304.054 147.038 303.355 146.686C302.657 146.334 301.885 146.151 301.102 146.152C300.937 146.166 300.772 146.114 300.645 146.007C300.518 145.899 300.438 145.746 300.424 145.58C300.41 145.415 300.462 145.25 300.569 145.123C300.677 144.996 300.83 144.916 300.996 144.902C301.995 144.879 302.985 145.095 303.884 145.532C304.783 145.97 305.564 146.616 306.162 147.417C306.213 147.48 306.251 147.553 306.274 147.632C306.296 147.71 306.302 147.793 306.292 147.874C306.283 147.955 306.256 148.033 306.216 148.104C306.175 148.174 306.12 148.236 306.055 148.285C305.948 148.374 305.813 148.423 305.674 148.423Z" fill="#263238"></path><path d="M259.74 145.74C259.571 145.812 259.386 145.841 259.203 145.825C259.02 145.809 258.843 145.749 258.689 145.649C257.551 144.842 256.237 144.318 254.857 144.119C253.476 143.92 252.068 144.053 250.749 144.506C250.612 144.576 250.462 144.617 250.308 144.625C250.155 144.634 250.001 144.61 249.858 144.555C249.714 144.501 249.583 144.416 249.474 144.308C249.365 144.2 249.28 144.07 249.225 143.927C249.157 143.789 249.118 143.64 249.111 143.487C249.103 143.334 249.128 143.181 249.182 143.038C249.236 142.895 249.32 142.765 249.427 142.656C249.534 142.546 249.662 142.46 249.804 142.403C251.462 141.808 253.239 141.618 254.986 141.849C256.733 142.079 258.399 142.724 259.847 143.728C259.967 143.808 260.07 143.911 260.151 144.031C260.231 144.151 260.287 144.286 260.316 144.427C260.344 144.569 260.344 144.715 260.316 144.856C260.288 144.998 260.232 145.132 260.152 145.252C260.067 145.453 259.924 145.623 259.74 145.74Z" fill="#263238"></path><path d="M294.352 623.834C293.184 623.81 292.023 623.651 290.892 623.362C290.829 623.35 290.772 623.318 290.728 623.272C290.685 623.225 290.657 623.166 290.648 623.103C290.639 623.044 290.647 622.984 290.671 622.93C290.696 622.876 290.735 622.83 290.785 622.798C291.273 622.493 295.556 619.857 297.019 620.619C297.181 620.701 297.318 620.828 297.412 620.984C297.506 621.14 297.555 621.32 297.552 621.502C297.59 621.811 297.551 622.123 297.44 622.413C297.328 622.703 297.147 622.961 296.912 623.164C296.157 623.666 295.256 623.902 294.352 623.834ZM291.791 622.92C294.047 623.377 295.784 623.286 296.5 622.676C296.66 622.538 296.782 622.363 296.857 622.166C296.931 621.969 296.956 621.757 296.927 621.548C296.927 621.304 296.82 621.213 296.729 621.167C295.967 620.786 293.483 621.914 291.791 622.92Z" fill="#9D7B5F"></path><path d="M290.951 623.316C290.896 623.329 290.839 623.329 290.784 623.316C290.736 623.285 290.698 623.242 290.674 623.191C290.65 623.14 290.64 623.083 290.646 623.027C290.646 622.874 290.966 619.049 292.521 617.784C292.702 617.629 292.914 617.514 293.142 617.446C293.37 617.377 293.61 617.358 293.847 617.388C294.085 617.384 294.316 617.464 294.5 617.615C294.685 617.766 294.809 617.977 294.853 618.211C295.127 619.735 292.475 622.585 291.104 623.331C291.052 623.342 290.999 623.336 290.951 623.316ZM293.633 617.936C293.369 617.937 293.114 618.035 292.917 618.211C292.002 619.413 291.471 620.863 291.393 622.371C292.75 621.335 294.441 619.14 294.273 618.256C294.273 618.18 294.274 617.997 293.816 617.936H293.679H293.633Z" fill="#9D7B5F"></path><path d="M393.579 599.968C393.523 599.966 393.468 599.948 393.422 599.915C393.376 599.883 393.341 599.838 393.32 599.785C393.29 599.725 393.282 599.656 393.295 599.589C393.309 599.523 393.345 599.463 393.396 599.42C393.884 598.962 398.288 594.924 400.087 595.366C400.254 595.4 400.409 595.479 400.535 595.594C400.661 595.71 400.754 595.857 400.803 596.021C400.912 596.285 400.955 596.571 400.929 596.855C400.902 597.139 400.807 597.413 400.65 597.652C399.599 599.282 395.804 599.801 393.625 599.968H393.579ZM399.812 595.945C398.761 595.945 396.277 597.728 394.509 599.252C397.465 598.932 399.538 598.231 400.132 597.316C400.23 597.155 400.289 596.974 400.305 596.786C400.321 596.598 400.293 596.41 400.224 596.234C400.205 596.168 400.167 596.109 400.116 596.063C400.065 596.017 400.002 595.987 399.934 595.975L399.812 595.945Z" fill="#9D7B5F"></path><path d="M393.578 599.968H393.502C393.451 599.946 393.405 599.912 393.368 599.87C393.331 599.828 393.304 599.778 393.289 599.724C393.289 599.572 392.649 596.036 393.899 594.253C394.071 593.992 394.295 593.769 394.557 593.599C394.819 593.428 395.114 593.314 395.423 593.262C396.276 593.125 396.626 593.476 396.779 593.796C397.419 595.183 395.133 598.795 393.731 599.892C393.688 599.931 393.635 599.957 393.578 599.968ZM395.864 593.872C395.758 593.86 395.651 593.86 395.544 593.872C395.316 593.908 395.097 593.991 394.902 594.117C394.708 594.244 394.543 594.409 394.417 594.604C393.771 595.976 393.568 597.515 393.838 599.008C395.133 597.621 396.611 594.878 396.23 594.04C396.195 593.975 396.142 593.922 396.077 593.886C396.012 593.851 395.938 593.836 395.864 593.842V593.872Z" fill="#9D7B5F"></path><path d="M308.278 197.754L304.148 184.983L317.163 182.225C317.163 182.225 319.998 189.692 316.386 195.575L308.278 197.754Z" fill="#FFC3BD"></path><path d="M303.344 176.616L314.774 174.559L317.105 182.225L304.09 184.983L303.344 176.616Z" fill="#FFC3BD"></path><path d="M276.551 214.884L277.328 215.57L278.288 216.393C278.959 216.957 279.63 217.52 280.331 218.069C281.717 219.151 283.165 220.203 284.659 221.117C287.577 223.109 290.633 224.891 293.803 226.451C296.92 227.961 300.163 229.195 303.495 230.139C306.761 231.044 310.111 231.606 313.493 231.816L305.675 237.744C306.649 234.706 307.273 231.566 307.534 228.387C307.885 224.927 308.083 221.3 308.113 217.627C308.144 213.954 308.113 210.236 308.006 206.487C307.9 202.738 307.732 198.867 307.564 195.255V195.072C307.621 194.04 308.026 193.057 308.713 192.285C309.4 191.512 310.329 190.996 311.348 190.819C312.366 190.642 313.414 190.816 314.322 191.311C315.229 191.807 315.941 192.595 316.343 193.548C317.638 197.404 318.583 201.168 319.528 205.039C320.473 208.91 321.143 212.811 321.707 216.804C322.279 220.845 322.61 224.916 322.698 228.996C322.839 233.5 322.394 238.003 321.372 242.392C320.959 244.028 320.025 245.486 318.711 246.544C317.397 247.603 315.774 248.205 314.087 248.26H313.508C308.813 248.427 304.115 248.023 299.518 247.056C294.992 246.133 290.577 244.728 286.35 242.865C282.19 241.071 278.201 238.903 274.433 236.388C272.558 235.123 270.745 233.797 268.962 232.395C268.078 231.694 267.194 230.977 266.325 230.215L265.03 229.027C264.572 228.585 264.222 228.265 263.597 227.64C262.184 225.919 261.447 223.742 261.525 221.517C261.603 219.292 262.49 217.171 264.02 215.554C265.55 213.936 267.617 212.932 269.834 212.73C272.052 212.528 274.267 213.142 276.063 214.457L276.551 214.884Z" fill="#263238"></path><path d="M175.89 194.371C169.961 198.943 169.55 207.996 169.687 213.375C169.824 218.755 170.114 213.375 166.868 222.9C163.622 232.425 166.151 243.109 180.172 240.35C194.193 237.592 201.417 240.762 210.805 242.956C220.193 245.151 239.212 234.422 233.009 223.556C226.807 212.69 224.063 205.664 227.233 201.671C230.403 197.678 236.865 183.627 225.435 180.747C214.005 177.866 219.461 172.349 205.867 172.212C192.273 172.075 166.106 180.198 175.89 194.371Z" fill="#263238"></path><path d="M245.504 275.296V276.18V277.262C245.504 277.978 245.504 278.786 245.611 279.456C245.702 280.98 245.87 282.428 246.068 283.891C246.437 286.801 247.023 289.679 247.82 292.502C248.559 295.217 249.581 297.848 250.868 300.35C251.189 300.945 251.509 301.554 251.874 302.118C252.042 302.408 252.21 302.712 252.408 302.987L252.697 303.398L252.834 303.612C252.834 303.612 253.002 303.856 252.834 303.612C252.073 302.81 251.074 302.276 249.985 302.088C249.311 301.947 248.616 301.947 247.942 302.088C247.554 302.17 247.179 302.309 246.83 302.499C246.373 302.773 246.357 302.865 246.388 302.85L246.693 302.575C247.528 301.634 248.268 300.613 248.903 299.527C249.665 298.278 250.427 296.891 251.143 295.504C252.667 292.7 253.993 289.728 255.364 286.756C258.077 280.782 260.744 274.564 263.365 268.544L270.498 270.663C269.236 277.395 267.613 284.054 265.636 290.612C264.661 293.919 263.533 297.196 262.268 300.518C261.628 302.179 260.912 303.825 260.089 305.532C259.208 307.431 258.141 309.238 256.904 310.927C256.481 311.47 256.017 311.979 255.517 312.451C254.792 313.181 253.966 313.802 253.063 314.295C252.347 314.682 251.584 314.975 250.792 315.164C250.29 315.269 249.781 315.336 249.268 315.362C248.687 315.374 248.105 315.333 247.531 315.24C245.606 314.876 243.864 313.865 242.593 312.375L241.481 311.049C241.145 310.668 240.856 310.272 240.551 309.86C239.926 309.068 239.378 308.245 238.829 307.422C236.734 304.126 235.031 300.597 233.754 296.906C232.517 293.329 231.614 289.646 231.056 285.903C230.782 284.044 230.599 282.184 230.477 280.325C230.477 279.38 230.371 278.45 230.355 277.49V276.043V274.427L245.504 275.296Z" fill="#FFB573"></path><path d="M237.445 258.181C250.826 268.438 248.113 284.363 248.113 284.363L229.078 292.319C229.078 292.319 218.959 274.031 221.946 266.944C225.086 259.522 229.901 252.405 237.445 258.181Z" fill="#263238"></path><path opacity="0.2" d="M236.101 289.408L229.091 292.334C229.091 292.334 222.645 280.629 221.562 272.324C223.087 270.373 226.028 269.367 229.426 272.324C232.017 274.838 235.05 282.306 236.101 289.408Z" fill="black"></path><path d="M249.437 284.653C249.576 285.098 249.534 285.579 249.32 285.993C249.106 286.407 248.738 286.719 248.294 286.863L230.22 292.7C229.773 292.839 229.289 292.798 228.873 292.584C228.457 292.37 228.141 292.001 227.995 291.557C227.856 291.112 227.898 290.631 228.112 290.217C228.326 289.803 228.694 289.49 229.138 289.347L247.212 283.464C247.436 283.396 247.672 283.373 247.905 283.396C248.138 283.419 248.365 283.487 248.571 283.598C248.778 283.708 248.961 283.858 249.109 284.039C249.258 284.22 249.369 284.429 249.437 284.653Z" fill="#9D7B5F"></path><path d="M262.348 272.126L265.015 261.458L276.521 266.852C276.521 266.852 275.18 276.301 267.377 278.389L262.348 272.126Z" fill="#FFB573"></path><path d="M268.73 254.325L277.265 256.657L276.518 266.822L265.012 261.427L268.73 254.325Z" fill="#FFB573"></path><path d="M170.555 622.691L184.362 624.002L190.184 591.952L176.376 590.626L170.555 622.691Z" fill="#FFB573"></path><path d="M87.6367 586.146L99.6763 593.049L115.374 564.642L103.349 557.738L87.6367 586.146Z" fill="#FFB573"></path><path d="M101.869 589.255L91.3076 577.688C91.2198 577.575 91.1107 577.481 90.9864 577.411C90.8622 577.341 90.7253 577.296 90.5837 577.279C90.442 577.262 90.2984 577.273 90.1611 577.312C90.0238 577.351 89.8955 577.416 89.7836 577.505L79.4204 584.546C79.1667 584.732 78.9552 584.97 78.7998 585.244C78.6443 585.518 78.5483 585.822 78.5181 586.135C78.4879 586.449 78.5242 586.765 78.6245 587.064C78.7248 587.362 78.887 587.636 79.1004 587.868C82.8494 591.83 84.8611 593.568 89.5093 598.658C92.3592 601.782 98.2266 609.128 102.174 613.456C106.121 617.784 110.601 614.111 109.352 611.932C103.713 602.285 102.936 596.341 102.738 591.541C102.724 590.701 102.417 589.892 101.869 589.255Z" fill="#263238"></path><path d="M185.69 619.841H169.155C168.861 619.845 168.576 619.946 168.345 620.128C168.114 620.31 167.948 620.562 167.875 620.847L164.705 633.984C164.631 634.299 164.63 634.627 164.701 634.943C164.773 635.259 164.915 635.554 165.118 635.807C165.321 636.06 165.578 636.263 165.871 636.401C166.164 636.539 166.484 636.609 166.808 636.605C172.63 636.605 175.403 636.605 182.673 636.605H204.908C211.004 636.605 212.025 630.509 209.48 629.945C198.187 627.461 191.604 624.032 188.037 620.801C187.403 620.198 186.565 619.856 185.69 619.841Z" fill="#263238"></path><path opacity="0.2" d="M190.171 591.952L187.184 608.488H173.133L176.364 590.642L190.171 591.952Z" fill="black"></path><path opacity="0.2" d="M103.33 557.738L115.37 564.657L107.278 579.288L95.2227 572.384L103.33 557.738Z" fill="black"></path><path d="M233.389 256.184C233.389 256.184 239.485 258.851 219.14 339.242L162.752 334.366C165.678 311.506 166.943 297.317 160.039 249.235C168.079 248.283 176.178 247.916 184.271 248.138C192.852 248.271 201.413 249.015 209.889 250.363C217.816 251.903 225.66 253.846 233.389 256.184Z" fill="#263238"></path><path opacity="0.2" d="M169.306 270.51C171.745 275.661 170.83 292.898 164.993 298.933C164.81 291.983 164.262 283.982 163.18 274.107C163.854 273.075 164.758 272.214 165.821 271.59C166.884 270.966 168.077 270.596 169.306 270.51Z" fill="black"></path><path d="M189.256 219.456C190.17 227.838 190.475 243.078 184.227 248.077C184.227 248.077 190.902 254.889 204.389 262.402C214.204 255.621 209.845 250.302 209.845 250.302C200.853 247.254 201.676 240.502 203.749 234.239L189.256 219.456Z" fill="#FFB573"></path><path opacity="0.2" d="M195.199 225.552L203.825 234.3C203.299 235.756 202.901 237.255 202.636 238.781C199.176 237.958 194.147 234.361 194.102 230.642C194.165 228.894 194.536 227.171 195.199 225.552Z" fill="black"></path><path d="M181.881 206.411C185.386 219.807 186.575 225.552 194.789 231.16C207.149 239.603 222.831 232.38 223.41 218.206C223.928 205.45 218.121 185.699 203.796 182.91C200.638 182.279 197.372 182.466 194.307 183.452C191.242 184.439 188.48 186.193 186.284 188.548C184.088 190.903 182.53 193.781 181.76 196.907C180.989 200.033 181.031 203.305 181.881 206.411Z" fill="#FFB573"></path><path d="M180.783 217.764C181.4 218.938 182.243 219.978 183.263 220.825C184.283 221.672 185.46 222.31 186.726 222.702C190.125 223.723 191.892 220.706 191.009 217.46C190.216 214.549 187.488 210.495 184.044 210.891C183.299 211 182.593 211.291 181.988 211.738C181.382 212.186 180.897 212.775 180.574 213.455C180.252 214.135 180.102 214.884 180.138 215.636C180.174 216.388 180.396 217.119 180.783 217.764Z" fill="#FFB573"></path><path d="M188.186 179.512C185.794 183.627 191.768 191.247 204.326 190.515C213.79 189.967 225.662 200.132 224.702 189.144C223.894 179.146 200.104 174.361 188.186 179.512Z" fill="#263238"></path><path d="M195.062 182.53C201.615 187.544 197.256 196.703 194.102 200.818C190.947 204.933 186.086 208.788 189.85 214.884C193.614 220.98 196.19 237.744 184.181 234.803C172.171 231.862 172.72 211.836 176.21 202.586C179.7 193.335 187.259 176.571 195.062 182.53Z" fill="#263238"></path><path d="M219.139 339.243C219.139 339.243 233.373 424.175 223.97 476.098C216.701 516.24 192.896 603.687 192.896 603.687L168.832 603.077C168.832 603.077 185.337 518.526 190.168 485.272C198.413 428.397 177.763 335.661 177.763 335.661L219.139 339.243Z" fill="#9D7B5F"></path><path opacity="0.2" d="M197.118 356.296L185.078 375.27C188.707 397.782 191.007 420.488 191.967 443.271C208.898 413.004 200.882 372.328 197.118 356.296Z" fill="black"></path><path d="M196.358 604.937L166.625 604.175L168.347 595.046L198.675 596.478L196.358 604.937Z" fill="#263238"></path><path d="M206.798 338.328C206.798 338.328 195.596 427.894 171.319 476.799C151.705 516.301 112.63 577.383 112.63 577.383L96.4297 567.065C96.4297 567.065 121.347 497.647 135.917 471.404C171.654 407.076 142.454 357.972 162.708 334.366L206.798 338.328Z" fill="#9D7B5F"></path><path d="M114.364 578.861L93.6836 566.471L97.4479 557.571L119.485 571.119L114.364 578.861Z" fill="#263238"></path><path d="M162.141 330.967L159.17 335.798C158.926 336.179 159.368 336.621 160.008 336.682L219.2 341.788C219.703 341.788 220.145 341.62 220.206 341.315L221.151 336.301C221.151 335.951 220.8 335.615 220.252 335.57L163.102 330.708C162.933 330.667 162.756 330.67 162.588 330.715C162.421 330.76 162.267 330.847 162.141 330.967Z" fill="#9D7B5F"></path><path opacity="0.2" d="M162.141 330.967L159.17 335.798C158.926 336.179 159.368 336.621 160.008 336.682L219.2 341.788C219.703 341.788 220.145 341.62 220.206 341.315L221.151 336.301C221.151 335.951 220.8 335.615 220.252 335.57L163.102 330.708C162.933 330.667 162.756 330.67 162.588 330.715C162.421 330.76 162.267 330.847 162.141 330.967Z" fill="black"></path><path d="M169.276 338.024L167.752 337.902C167.448 337.902 167.234 337.688 167.265 337.505L168.56 330.998C168.56 330.815 168.88 330.678 169.185 330.708L170.709 330.83C171.014 330.83 171.227 331.044 171.197 331.227L169.901 337.734C169.855 337.917 169.581 338.054 169.276 338.024Z" fill="#9D7B5F"></path><path d="M214.843 341.97L213.319 341.833C213.014 341.833 212.801 341.635 212.831 341.437L214.111 334.945C214.111 334.747 214.431 334.625 214.736 334.64L216.26 334.777C216.565 334.777 216.778 334.975 216.748 335.173L215.452 341.666C215.437 341.864 215.147 342.001 214.843 341.97Z" fill="#9D7B5F"></path><path d="M192.06 340.005L190.536 339.867C190.232 339.867 190.003 339.669 190.049 339.471L191.329 332.964C191.329 332.781 191.649 332.644 191.954 332.674L193.478 332.811C193.783 332.811 194.011 333.009 193.965 333.192L192.685 339.7C192.64 339.852 192.365 340.02 192.06 340.005Z" fill="#9D7B5F"></path><path d="M204.556 205.954C204.77 207.051 205.532 207.828 206.263 207.691C206.995 207.554 207.391 206.548 207.162 205.435C206.934 204.323 206.187 203.561 205.471 203.698C204.754 203.835 204.343 204.841 204.556 205.954Z" fill="#263238"></path><path d="M213.578 219.761C213.791 220.874 214.553 221.651 215.269 221.514C215.985 221.377 216.397 220.356 216.184 219.258C215.97 218.161 215.208 217.369 214.492 217.506C213.776 217.643 213.349 218.664 213.578 219.761Z" fill="#263238"></path><path d="M217.038 203.5C217.252 204.597 218.014 205.374 218.73 205.237C219.446 205.1 219.858 204.094 219.645 202.982C219.431 201.869 218.669 201.107 217.953 201.244C217.237 201.382 216.81 202.387 217.038 203.5Z" fill="#263238"></path><path d="M217.648 201.366L220.148 200.086C220.148 200.086 219.188 202.418 217.648 201.366Z" fill="#263238"></path><path d="M212.711 206.243C214.187 208.571 215.977 210.683 218.03 212.522C217.549 213.037 216.962 213.44 216.309 213.704C215.656 213.967 214.953 214.084 214.25 214.046L212.711 206.243Z" fill="#ED893E"></path><path d="M197.057 201.671C196.96 201.667 196.867 201.641 196.782 201.595C196.72 201.557 196.665 201.508 196.622 201.449C196.579 201.39 196.548 201.323 196.531 201.252C196.514 201.181 196.511 201.108 196.523 201.036C196.535 200.964 196.561 200.895 196.599 200.833C197.109 199.937 197.826 199.178 198.691 198.618C199.555 198.058 200.542 197.715 201.568 197.617C201.712 197.617 201.851 197.672 201.956 197.771C202.061 197.871 202.124 198.006 202.132 198.151C202.136 198.294 202.084 198.433 201.987 198.538C201.89 198.643 201.756 198.707 201.613 198.714C200.768 198.809 199.957 199.103 199.247 199.572C198.537 200.041 197.948 200.671 197.529 201.412C197.479 201.492 197.41 201.558 197.327 201.603C197.244 201.649 197.151 201.672 197.057 201.671Z" fill="#263238"></path><path d="M220.499 197.252C220.403 197.248 220.309 197.222 220.224 197.175C219.497 196.742 218.677 196.487 217.832 196.432C216.987 196.376 216.141 196.521 215.363 196.855C215.299 196.89 215.229 196.911 215.156 196.918C215.084 196.926 215.011 196.918 214.942 196.897C214.872 196.876 214.808 196.841 214.752 196.795C214.696 196.748 214.65 196.691 214.616 196.627C214.552 196.495 214.541 196.343 214.586 196.204C214.632 196.064 214.73 195.948 214.86 195.88C215.801 195.462 216.829 195.274 217.857 195.332C218.885 195.39 219.885 195.693 220.773 196.215C220.884 196.272 220.973 196.366 221.024 196.48C221.075 196.595 221.085 196.723 221.053 196.844C221.021 196.965 220.948 197.071 220.848 197.145C220.747 197.22 220.624 197.257 220.499 197.252Z" fill="#263238"></path><path d="M168.317 269.931C165.269 275.951 162.053 282.245 159.173 288.372C157.801 291.42 156.46 294.468 155.454 297.439C155.009 298.722 154.643 300.03 154.357 301.356C154.25 301.844 154.265 302.255 154.189 301.996V301.859L154.098 301.6L153.93 301.234C153.93 301.128 153.93 301.234 153.93 301.234C153.955 301.308 153.986 301.379 154.021 301.448C154.113 301.661 154.265 301.935 155.012 302.286C156.045 302.682 157.137 302.898 158.243 302.926C161.279 302.999 164.313 302.708 167.28 302.057C173.924 300.615 180.45 298.674 186.803 296.251L190.308 302.834C184.089 306.979 177.384 310.342 170.344 312.847C166.512 314.238 162.507 315.094 158.441 315.392C155.995 315.55 153.54 315.308 151.172 314.676C149.747 314.278 148.383 313.688 147.118 312.923C145.731 312.059 144.495 310.973 143.46 309.708C142.951 309.077 142.497 308.404 142.104 307.696C141.977 307.506 141.865 307.308 141.768 307.102C141.612 306.785 141.475 306.459 141.357 306.126C141.25 305.837 141.159 305.532 141.067 305.242L140.885 304.45C140.606 302.912 140.545 301.342 140.702 299.786C140.909 297.605 141.318 295.447 141.921 293.34C142.942 289.66 144.189 286.046 145.655 282.52C148.423 275.725 151.609 269.108 155.195 262.708L168.317 269.931Z" fill="#FFB573"></path><path d="M184.301 298.704L189.848 287.579L197.361 297.287C197.361 297.287 192.789 304.054 186.968 303.825L184.301 298.704Z" fill="#FFB573"></path><path d="M195.748 284.363L202.896 292.242L197.318 297.287L189.805 287.594L195.748 284.363Z" fill="#FFB573"></path><path d="M159.995 249.235C147.422 252.1 146.66 274.793 146.66 274.793L160.955 287.442C160.955 287.442 174.671 270.937 173.955 261.93C173.315 254.264 168.712 247.239 159.995 249.235Z" fill="#263238"></path><path d="M162.587 288.112C162.298 288.482 161.875 288.722 161.41 288.782C160.945 288.842 160.475 288.716 160.102 288.432L145.091 276.789C144.726 276.501 144.489 276.081 144.429 275.62C144.369 275.159 144.492 274.692 144.771 274.32C145.062 273.953 145.486 273.716 145.951 273.659C146.415 273.602 146.884 273.73 147.255 274.015L162.267 285.644C162.631 285.932 162.869 286.352 162.929 286.813C162.989 287.274 162.866 287.74 162.587 288.112Z" fill="#9D7B5F"></path><path d="M106.168 595.884C105.991 595.907 105.811 595.907 105.634 595.884C103.897 595.732 102.129 593.004 101.23 591.312C101.2 591.267 101.184 591.214 101.184 591.16C101.184 591.106 101.2 591.053 101.23 591.007C101.264 590.965 101.309 590.934 101.361 590.918C101.412 590.902 101.467 590.901 101.519 590.916C102.068 591.053 106.914 592.333 107.463 593.964C107.52 594.144 107.529 594.336 107.489 594.52C107.449 594.705 107.361 594.875 107.234 595.016C106.994 595.423 106.616 595.731 106.168 595.884ZM102.038 591.724C103.348 593.934 104.689 595.275 105.68 595.366C105.903 595.382 106.127 595.338 106.328 595.239C106.528 595.14 106.699 594.989 106.823 594.802C106.892 594.734 106.941 594.649 106.966 594.555C106.99 594.461 106.988 594.362 106.96 594.269C106.625 593.172 103.714 592.135 102.038 591.648V591.724Z" fill="#9D7B5F"></path><path d="M105.848 591.449C104.379 591.787 102.852 591.787 101.383 591.449C101.338 591.435 101.297 591.409 101.265 591.374C101.233 591.34 101.211 591.297 101.2 591.251C101.191 591.204 101.195 591.155 101.211 591.109C101.227 591.064 101.255 591.023 101.291 590.992C101.413 590.87 104.339 588.188 106.366 588.401C106.609 588.425 106.845 588.501 107.055 588.625C107.266 588.748 107.447 588.917 107.586 589.118C107.743 589.315 107.828 589.559 107.828 589.811C107.828 590.063 107.743 590.307 107.586 590.504C107.123 590.997 106.514 591.329 105.848 591.449ZM102.053 591.068C103.669 591.343 106.625 591.068 107.22 590.184C107.326 590.047 107.403 589.834 107.144 589.453C107.047 589.316 106.922 589.202 106.777 589.118C106.633 589.034 106.472 588.982 106.305 588.965C104.949 588.813 102.983 590.352 102.053 591.068Z" fill="#9D7B5F"></path><path d="M193.127 622.523C191.587 622.491 190.054 622.297 188.555 621.944C188.507 621.941 188.46 621.926 188.42 621.899C188.38 621.872 188.347 621.835 188.326 621.792C188.32 621.736 188.329 621.679 188.354 621.628C188.378 621.577 188.416 621.533 188.463 621.502C189.134 621.182 195.047 618.454 196.601 619.445C196.74 619.534 196.852 619.659 196.925 619.806C196.997 619.954 197.028 620.119 197.013 620.283C197.011 620.579 196.941 620.869 196.809 621.134C196.677 621.398 196.486 621.628 196.251 621.807C195.307 622.36 194.217 622.61 193.127 622.523ZM189.515 621.579C191.313 621.914 194.62 622.356 195.946 621.32C196.124 621.187 196.267 621.014 196.365 620.816C196.463 620.617 196.513 620.398 196.51 620.177C196.523 620.106 196.514 620.033 196.484 619.967C196.454 619.902 196.404 619.847 196.342 619.811C195.489 619.247 191.984 620.481 189.515 621.579Z" fill="#9D7B5F"></path><path d="M188.645 621.96C188.585 621.973 188.522 621.973 188.462 621.96C188.426 621.924 188.399 621.881 188.384 621.833C188.368 621.786 188.363 621.735 188.371 621.685C188.371 621.426 189.59 615.513 192.866 615.894C193.674 615.986 193.918 616.397 193.964 616.717C194.223 618.241 190.535 621.289 188.752 621.99L188.645 621.96ZM192.577 616.351C190.504 616.351 189.392 619.796 189.041 621.182C190.961 620.161 193.613 617.692 193.43 616.732C193.43 616.656 193.43 616.443 192.805 616.367L192.577 616.351Z" fill="#9D7B5F"></path><path d="M205.164 203.82L207.663 202.54C207.663 202.54 206.703 204.871 205.164 203.82Z" fill="#263238"></path><path d="M398.757 94.9298C403.425 94.9159 408.041 95.9074 412.291 97.8367C416.541 99.766 420.325 102.588 423.387 106.111C426.45 109.633 428.717 113.774 430.036 118.251C431.355 122.729 431.694 127.437 431.031 132.057C430.367 136.677 428.716 141.101 426.191 145.026C423.665 148.951 420.324 152.286 416.395 154.805C412.465 157.323 408.039 158.966 403.418 159.621C398.796 160.277 394.088 159.929 389.613 158.602L358.448 149.458L367.592 118.293C369.593 111.576 373.702 105.681 379.312 101.479C384.921 97.2778 391.734 94.9922 398.742 94.9602M398.742 93.4362C391.404 93.4408 384.263 95.8175 378.386 100.212C372.508 104.606 368.209 110.783 366.129 117.82L356.527 150.449L389.156 160.05C393.441 161.313 397.933 161.72 402.375 161.247C406.817 160.774 411.122 159.43 415.045 157.293C418.968 155.156 422.431 152.268 425.238 148.792C428.044 145.317 430.139 141.323 431.401 137.038C432.664 132.753 433.071 128.261 432.598 123.819C432.125 119.377 430.781 115.072 428.645 111.149C426.508 107.226 423.619 103.763 420.144 100.956C416.668 98.1499 412.674 96.0555 408.389 94.7926C405.261 93.8719 402.018 93.4049 398.757 93.4058L398.742 93.4362Z" fill="#9D7B5F"></path><path d="M400.736 135.636L391.15 132.816L391.44 131.856C391.788 130.496 392.371 129.206 393.162 128.046C393.822 127.137 394.643 126.357 395.585 125.745C397.593 124.591 399.675 123.573 401.818 122.697C403.51 121.981 404.485 121.173 404.76 120.243C404.901 119.855 404.958 119.44 404.926 119.027C404.895 118.615 404.776 118.214 404.577 117.851C404.05 117.07 403.242 116.524 402.321 116.327C401.775 116.149 401.198 116.085 400.627 116.14C400.055 116.195 399.501 116.368 398.999 116.647C397.723 117.57 396.786 118.887 396.332 120.396L386.898 116.312C388.043 113.055 390.357 110.339 393.391 108.692C396.302 107.168 400.127 107.168 404.836 108.493C408 109.268 410.858 110.978 413.035 113.401C414.201 114.677 415.013 116.236 415.39 117.923C415.767 119.61 415.696 121.366 415.184 123.017C414.749 124.478 413.922 125.79 412.791 126.812C410.906 128.304 408.783 129.468 406.512 130.256C404.996 130.765 403.582 131.539 402.337 132.542C401.548 133.42 400.997 134.485 400.736 135.636ZM390.068 135.255L400.34 138.303L397.673 147.355L387.401 144.307L390.068 135.255Z" fill="#9D7B5F"></path><path d="M100.875 111.252C110.213 111.234 119.283 114.378 126.605 120.173C133.928 125.968 139.072 134.072 141.2 143.165L150.786 183.535L110.415 193.121C107.264 193.868 104.037 194.246 100.799 194.249C90.6364 194.232 80.8333 190.487 73.2483 183.724C65.6634 176.96 60.8239 167.648 59.6477 157.554C58.4714 147.46 61.04 137.285 66.8665 128.958C72.693 120.632 81.3723 114.733 91.2587 112.38C94.4098 111.633 97.6368 111.255 100.875 111.252ZM100.875 109.728C97.5184 109.73 94.1734 110.123 90.9082 110.902C85.4089 112.206 80.2206 114.581 75.6399 117.891C71.0592 121.202 67.1759 125.383 64.2121 130.195C61.2483 135.007 59.2621 140.357 58.367 145.937C57.4719 151.518 57.6855 157.22 58.9956 162.718C60.2924 168.221 62.6631 173.414 65.9717 177.999C69.2803 182.584 73.4616 186.47 78.2759 189.435C83.0901 192.4 88.4424 194.385 94.0258 195.277C99.6091 196.168 105.313 195.949 110.812 194.63L152.661 184.694L142.724 142.845C140.494 133.42 135.15 125.023 127.555 119.013C119.96 113.004 110.56 109.732 100.875 109.728Z" fill="#9D7B5F"></path><path d="M108.13 160.477L95.8464 163.388L95.5416 162.169C95.0836 160.451 94.9187 158.668 95.0539 156.896C95.2181 155.472 95.6472 154.092 96.3188 152.826C97.818 150.324 99.4775 147.921 101.287 145.633C102.704 143.789 103.268 142.28 102.979 141.061C102.893 140.543 102.696 140.051 102.401 139.616C102.107 139.182 101.721 138.817 101.272 138.547C100.204 138.039 98.9836 137.957 97.858 138.318C97.1483 138.464 96.4761 138.754 95.8835 139.171C95.2909 139.588 94.7906 140.122 94.4138 140.741C93.5763 142.539 93.3462 144.561 93.7585 146.502L80.835 147.934C80.079 143.688 80.9088 139.311 83.1667 135.636C85.4222 132.131 89.5675 129.662 95.6025 128.229C99.5635 127.091 103.776 127.176 107.688 128.473C109.761 129.139 111.626 130.332 113.101 131.935C114.575 133.537 115.609 135.495 116.1 137.617C116.527 139.495 116.438 141.454 115.841 143.286C114.706 146.105 113.103 148.712 111.102 150.998C109.764 152.511 108.706 154.25 107.977 156.134C107.657 157.571 107.71 159.066 108.13 160.477ZM96.1969 166.756L109.364 163.708L112.123 175.26L98.9553 178.308L96.1969 166.756Z" fill="#9D7B5F"></path></svg> 