<?xml version="1.0" encoding="UTF-8"?> <svg xmlns="http://www.w3.org/2000/svg" width="1440" height="382" viewBox="0 0 1440 382" fill="none"><path d="M0 5L34.3 32.3C68.7 59.7 137.3 114.3 205.8 134.3C274.3 154.3 342.7 139.7 411.2 114.7C479.7 89.7 548.3 54.3 617 44C685.7 33.7 754.3 48.3 823 73.8C891.7 99.3 960.3 135.7 1028.8 156.5C1097.3 177.3 1165.7 182.7 1234.2 154C1302.7 125.3 1371.3 62.7 1405.7 31.3L1440 0V383H1405.7C1371.3 383 1302.7 383 1234.2 383C1165.7 383 1097.3 383 1028.8 383C960.3 383 891.7 383 823 383C754.3 383 685.7 383 617 383C548.3 383 479.7 383 411.2 383C342.7 383 274.3 383 205.8 383C137.3 383 68.7 383 34.3 383H0V5Z" fill="#FFEACE"></path></svg> 