<?xml version="1.0" encoding="UTF-8"?> <svg xmlns="http://www.w3.org/2000/svg" width="141" height="19" viewBox="0 0 141 19" fill="none"><path d="M7.775 2.525C7.875 2.50833 8.14167 2.5 8.575 2.5C9.025 2.5 9.55833 2.58333 10.175 2.75C10.8083 2.9 11.4167 3.15833 12 3.525C12.6 3.875 13.075 4.4 13.425 5.1C13.7917 5.78333 13.975 6.6 13.975 7.55C13.975 9.11667 13.3667 10.3833 12.15 11.35C10.9333 12.3167 9.325 12.8 7.325 12.8C7.325 16.05 6.75 17.675 5.6 17.675C4.83333 17.675 4.45 17.35 4.45 16.7C4.45 16.5 4.55 16.225 4.75 15.875C4.95 15.525 5.09167 15.125 5.175 14.675C5.25833 14.225 5.325 13.5 5.375 12.5C4.69167 12.2833 4.35 11.9833 4.35 11.6C4.35 11.2167 4.525 11.025 4.875 11.025C5.05833 11.025 5.24167 11.05 5.425 11.1C5.64167 6.65 5.79167 4.19167 5.875 3.725C4.925 3.95833 4.13333 4.34167 3.5 4.875C2.88333 5.40833 2.575 6.04167 2.575 6.775C2.575 7.19167 2.48333 7.51667 2.3 7.75C2.13333 7.98333 1.91667 8.1 1.65 8.1C1.15 8.1 0.9 7.81667 0.9 7.25C0.9 6.13333 1.39167 5.175 2.375 4.375C3.375 3.55833 4.61667 3.00833 6.1 2.725C6.41667 1.65833 6.85833 1.125 7.425 1.125C7.65833 1.125 7.775 1.59167 7.775 2.525ZM12.1 8.25C12.1 6.75 11.6667 5.60833 10.8 4.825C9.95 4.025 8.91667 3.6 7.7 3.55C7.45 6.5 7.325 9.275 7.325 11.875C7.55833 11.9083 7.74167 11.925 7.875 11.925C9.275 11.925 10.325 11.5667 11.025 10.85C11.7417 10.1333 12.1 9.26667 12.1 8.25ZM17.3684 17.125C16.435 17.125 15.6934 16.775 15.1434 16.075C14.5934 15.3583 14.3184 14.55 14.3184 13.65C14.3184 11.8333 14.7017 10.4583 15.4684 9.525C16.235 8.59167 17.2267 8.125 18.4434 8.125C19.01 8.125 19.4767 8.28333 19.8434 8.6C20.21 8.9 20.3934 9.31667 20.3934 9.85C20.3934 10.85 19.9684 11.6917 19.1184 12.375C18.285 13.0417 17.26 13.3917 16.0434 13.425C16.11 14.075 16.3267 14.6417 16.6934 15.125C17.0767 15.5917 17.5184 15.825 18.0184 15.825C18.5184 15.825 18.9684 15.7083 19.3684 15.475C19.7684 15.2417 20.135 14.9083 20.4684 14.475C21.1684 13.5583 21.7684 12.5167 22.2684 11.35C22.4017 11.05 22.5017 10.8333 22.5684 10.7C22.6517 10.5667 22.735 10.5 22.8184 10.5C22.9184 10.5 22.9684 10.5667 22.9684 10.7C22.9684 11.5333 22.46 12.7833 21.4434 14.45C20.3434 16.2333 18.985 17.125 17.3684 17.125ZM16.0434 12.825C17.0267 12.6583 17.7434 12.3417 18.1934 11.875C18.66 11.4083 18.8934 10.8 18.8934 10.05C18.8934 9.3 18.6517 8.925 18.1684 8.925C17.585 8.925 17.0934 9.33333 16.6934 10.15C16.2934 10.95 16.0767 11.8417 16.0434 12.825ZM29.6926 17.875L30.3676 17.8C30.5009 17.8 30.5676 17.8667 30.5676 18C30.5676 18.2333 30.4092 18.4083 30.0926 18.525C29.7759 18.6417 29.4176 18.7 29.0176 18.7C28.2676 18.7 27.6342 18.4 27.1176 17.8C26.6176 17.2 25.9176 16.0917 25.0176 14.475C24.8009 14.125 24.6926 13.8583 24.6926 13.675C24.6926 13.425 25.0426 13.1333 25.7426 12.8C26.8759 12.2167 27.4426 11.4833 27.4426 10.6C27.4426 10.35 27.3509 10.1417 27.1676 9.975C27.0009 9.79167 26.7759 9.7 26.4926 9.7C26.0926 9.7 25.6176 10.175 25.0676 11.125C24.5176 12.0583 24.1426 12.9417 23.9426 13.775C23.7592 14.5917 23.6676 15.475 23.6676 16.425C23.6676 16.8917 23.5342 17.125 23.2676 17.125C22.8842 17.125 22.5176 17.075 22.1676 16.975C21.8176 16.8583 21.6426 16.7167 21.6426 16.55C21.6426 16.3667 21.7092 15.575 21.8426 14.175C21.9759 12.7583 22.0509 11.7417 22.0676 11.125C22.1342 7.725 22.3342 5.125 22.6676 3.325C22.7176 3.175 22.9426 2.91667 23.3426 2.55C23.7592 2.18333 24.0926 2 24.3426 2C24.5926 2 24.7092 2.31667 24.6926 2.95C24.6926 3.56667 24.5592 4.9 24.2926 6.95C24.0259 9 23.8592 10.875 23.7926 12.575C24.0926 11.5083 24.5676 10.5 25.2176 9.55C25.8842 8.6 26.5509 8.125 27.2176 8.125C28.3509 8.125 28.9176 8.675 28.9176 9.775C28.9176 10.5083 28.7009 11.175 28.2676 11.775C27.8342 12.3583 27.2509 12.8333 26.5176 13.2C26.3676 13.2667 26.2926 13.3417 26.2926 13.425C26.2926 13.5083 26.3176 13.5917 26.3676 13.675C27.4176 15.525 28.3092 16.825 29.0426 17.575C29.2426 17.775 29.4592 17.875 29.6926 17.875ZM37.2369 17.125C36.5869 17.125 36.0952 16.9917 35.7619 16.725C35.6452 16.6083 35.5869 16.3167 35.5869 15.85C35.5869 15.3667 35.6036 14.725 35.6369 13.925C35.2036 15.0083 34.7702 15.8167 34.3369 16.35C33.9202 16.8667 33.3786 17.125 32.7119 17.125C32.0452 17.125 31.4619 16.8167 30.9619 16.2C30.4619 15.5667 30.2119 14.5833 30.2119 13.25C30.2119 11.9 30.5869 10.7083 31.3369 9.675C32.1036 8.64167 33.1036 8.125 34.3369 8.125C34.8702 8.125 35.4702 8.475 36.1369 9.175C36.2702 8.99167 36.5036 8.775 36.8369 8.525C37.1869 8.25833 37.4786 8.125 37.7119 8.125C37.9619 8.125 38.0869 8.44167 38.0869 9.075C38.0869 9.24167 38.0369 9.56667 37.9369 10.05C37.8536 10.5333 37.7536 10.8833 37.6369 11.1C37.4869 11.4833 37.4119 12.8417 37.4119 15.175C37.4119 15.625 37.4619 15.85 37.5619 15.85C37.8452 15.8333 38.2369 15.4833 38.7369 14.8C39.2369 14.1 39.7286 13.2083 40.2119 12.125C40.7119 11.0417 41.0119 10.5 41.1119 10.5C41.2286 10.5 41.2869 10.5667 41.2869 10.7C41.2869 11.1667 41.0452 11.9083 40.5619 12.925C39.2452 15.725 38.1369 17.125 37.2369 17.125ZM34.1869 9.125C33.7202 9.125 33.2202 9.475 32.6869 10.175C32.1702 10.8583 31.9119 11.6667 31.9119 12.6C31.9119 13.5333 32.0452 14.3 32.3119 14.9C32.5952 15.5 32.9619 15.8 33.4119 15.8C33.9619 15.8 34.7702 14.425 35.8369 11.675C35.8536 11.5417 35.8702 11.3167 35.8869 11C35.9202 10.6667 35.9452 10.4167 35.9619 10.25C35.8119 9.98333 35.5452 9.73333 35.1619 9.5C34.7952 9.25 34.4702 9.125 34.1869 9.125ZM41.9572 10.475L43.3322 10.325C43.4656 10.325 43.5822 10.4 43.6822 10.55C43.7822 10.7 43.8322 10.8583 43.8322 11.025C43.8322 11.1917 43.7739 11.7583 43.6572 12.725C43.5572 13.6917 43.5072 14.4583 43.5072 15.025C43.5072 15.575 43.5572 15.85 43.6572 15.85C43.9406 15.8333 44.3322 15.4833 44.8322 14.8C45.3322 14.1 45.8239 13.2083 46.3072 12.125C46.8072 11.0417 47.1072 10.5 47.2072 10.5C47.3239 10.5 47.3822 10.5667 47.3822 10.7C47.3822 11.1667 47.1406 11.9083 46.6572 12.925C45.3406 15.725 44.2322 17.125 43.3322 17.125C42.6822 17.125 42.1906 16.9917 41.8572 16.725C41.7406 16.6083 41.6822 15.8833 41.6822 14.55C41.6822 13.2167 41.8239 12.075 42.1072 11.125C41.1406 11.125 40.4656 10.8167 40.0822 10.2C39.8822 9.88333 39.7822 9.525 39.7822 9.125C39.7822 8.725 39.8656 8.375 40.0322 8.075C40.1989 7.775 40.4322 7.625 40.7322 7.625C41.0489 7.625 41.3322 7.79167 41.5822 8.125C41.8489 8.44167 41.9822 8.8 41.9822 9.2C41.9822 9.6 41.8656 10 41.6322 10.4C41.6989 10.45 41.8072 10.475 41.9572 10.475ZM40.9072 3.175C40.9072 3.075 40.9739 2.98333 41.1072 2.9C41.2572 2.8 41.3822 2.75 41.4822 2.75C41.7989 2.75 42.1906 2.98333 42.6572 3.45C43.1406 3.91667 43.4822 4.44167 43.6822 5.025C43.7989 4.50833 44.1406 4.025 44.7072 3.575C45.2906 3.125 45.6989 2.9 45.9322 2.9C46.1822 2.9 46.3072 2.975 46.3072 3.125C46.3072 3.175 46.1572 3.31667 45.8572 3.55C45.5572 3.76667 45.3822 3.9 45.3322 3.95C44.8656 4.41667 44.5489 5.025 44.3822 5.775C44.3489 5.90833 44.1906 6.06667 43.9072 6.25C43.6239 6.41667 43.4156 6.5 43.2822 6.5C43.0822 6.5 42.9656 6.36667 42.9322 6.1C42.8322 5.56667 42.5989 5.025 42.2322 4.475C41.8656 3.925 41.4239 3.49167 40.9072 3.175ZM49.8543 9.35L49.9043 8.975C49.9043 8.675 49.7293 8.525 49.3793 8.525C49.046 8.525 48.721 8.75 48.4043 9.2C48.0876 9.63333 47.9293 9.99167 47.9293 10.275C47.9293 10.5583 47.946 10.7833 47.9793 10.95C48.0126 11.1167 48.046 11.2583 48.0793 11.375C48.1293 11.475 48.2043 11.6 48.3043 11.75C48.4043 11.9 48.4793 12.0083 48.5293 12.075L48.8043 12.425C48.921 12.5917 49.0043 12.7 49.0543 12.75C49.921 12.0333 50.9543 11.2333 52.1543 10.35C52.221 10.3 52.296 10.275 52.3793 10.275C52.546 10.275 52.6293 10.3667 52.6293 10.55C52.6293 10.7333 52.5543 10.875 52.4043 10.975C51.3376 11.6583 50.3293 12.4 49.3793 13.2C49.746 13.7333 49.9293 14.3167 49.9293 14.95C49.9293 15.5833 49.6876 16.125 49.2043 16.575C48.721 17.025 48.1043 17.25 47.3543 17.25C46.6043 17.25 46.2293 16.8917 46.2293 16.175C46.2293 15.6583 46.7793 14.8667 47.8793 13.8C47.796 13.7 47.646 13.5417 47.4293 13.325C47.2126 13.0917 47.046 12.9083 46.9293 12.775C46.8293 12.6417 46.7043 12.4667 46.5543 12.25C46.2876 11.8333 46.1543 11.3833 46.1543 10.9C46.1543 9.91667 46.471 9.125 47.1043 8.525C47.7376 7.90833 48.4126 7.6 49.1293 7.6C49.5793 7.6 49.9293 7.725 50.1793 7.975C50.4293 8.20833 50.5543 8.45 50.5543 8.7C50.5543 9.26667 50.421 9.55 50.1543 9.55C49.9543 9.55 49.8543 9.48333 49.8543 9.35ZM48.2543 14.275C47.5876 14.9417 47.2543 15.4833 47.2543 15.9C47.2543 16.3 47.4626 16.5 47.8793 16.5C48.1293 16.5 48.3376 16.4 48.5043 16.2C48.871 15.7 48.7876 15.0583 48.2543 14.275ZM56.9545 12.925C55.6378 15.725 54.5212 17.125 53.6045 17.125C52.7045 17.125 52.1712 17.0167 52.0045 16.8C51.8545 16.5833 51.7795 15.8667 51.7795 14.65C51.7795 13.4333 51.8962 11.675 52.1295 9.375C51.2962 9.20833 50.8545 8.86667 50.8045 8.35C50.8045 8.08333 50.9795 7.95 51.3295 7.95C51.6795 7.95 51.9878 8.01667 52.2545 8.15C52.4045 6.95 52.5795 5.73333 52.7795 4.5C52.8295 4.18333 52.9878 3.88333 53.2545 3.6C53.5212 3.31667 53.7795 3.175 54.0295 3.175C54.2462 3.175 54.3545 3.51667 54.3545 4.2C54.3545 4.51667 54.2378 5.975 54.0045 8.575C54.4545 8.49167 54.9462 8.325 55.4795 8.075C56.0295 7.825 56.3545 7.7 56.4545 7.7C56.7545 7.7 56.9045 7.79167 56.9045 7.975C56.9212 8.14167 56.6128 8.375 55.9795 8.675C55.3462 8.95833 54.6628 9.175 53.9295 9.325C53.7295 11.7583 53.6295 13.6 53.6295 14.85C53.6295 15.5167 53.7295 15.85 53.9295 15.85C54.2295 15.8333 54.6295 15.4833 55.1295 14.8C55.6295 14.1167 56.1212 13.2333 56.6045 12.15C57.1045 11.05 57.4045 10.5 57.5045 10.5C57.6212 10.5 57.6795 10.5667 57.6795 10.7C57.6795 11.1667 57.4378 11.9083 56.9545 12.925ZM59.5088 15.9C60.1088 15.9 60.6338 15.5917 61.0838 14.975C61.5338 14.3417 61.8671 13.575 62.0838 12.675C61.4838 12.4917 61.0255 12.175 60.7088 11.725C60.3921 11.2583 60.2338 10.725 60.2338 10.125C60.2338 9.525 60.3838 9 60.6838 8.55C61.0005 8.1 61.4505 7.875 62.0338 7.875C62.3838 7.875 62.6505 8.1 62.8338 8.55C63.0171 8.98333 63.1088 9.475 63.1088 10.025C63.1088 10.575 63.0671 11.125 62.9838 11.675C63.2338 11.775 63.5005 11.825 63.7838 11.825C64.4338 11.825 65.0588 11.525 65.6588 10.925C65.9588 10.625 66.1588 10.475 66.2588 10.475C66.3755 10.475 66.4338 10.5583 66.4338 10.725C66.4338 10.8917 66.3255 11.0917 66.1088 11.325C65.2255 12.3083 64.1088 12.8 62.7588 12.8C62.4421 14.0167 61.9505 15.0417 61.2838 15.875C60.6171 16.7083 59.8005 17.125 58.8338 17.125C58.2671 17.125 57.8005 16.8833 57.4338 16.4C56.8171 15.6167 56.5088 14.4667 56.5088 12.95C56.5088 12.4333 56.5505 11.7667 56.6338 10.95C56.7171 10.1333 56.8088 9.63333 56.9088 9.45C57.0255 9.26667 57.2921 9.04167 57.7088 8.775C58.1421 8.50833 58.4421 8.375 58.6088 8.375C58.8588 8.375 58.9838 8.525 58.9838 8.825C58.9838 9.675 58.7671 10.6 58.3338 11.6C58.3338 12.7833 58.4255 13.8 58.6088 14.65C58.8088 15.4833 59.1088 15.9 59.5088 15.9ZM61.7838 8.825C61.6505 8.825 61.5838 9.1 61.5838 9.65C61.5838 10.2 61.8338 10.725 62.3338 11.225C62.3671 11.025 62.3838 10.825 62.3838 10.625C62.3838 9.425 62.1838 8.825 61.7838 8.825ZM66.774 17.125C66.124 17.125 65.6324 16.9917 65.299 16.725C65.1824 16.6083 65.124 16.1917 65.124 15.475C65.124 14.7583 65.174 13.5667 65.274 11.9C65.3907 10.2167 65.4907 9.30833 65.574 9.175C65.6574 9.04167 65.9157 8.79167 66.349 8.425C66.7824 8.05833 67.1157 7.875 67.349 7.875C67.599 7.875 67.724 8.19167 67.724 8.825C67.724 8.975 67.674 9.29167 67.574 9.775C67.4907 10.2583 67.3907 10.6167 67.274 10.85C67.0574 11.3167 66.949 12.7583 66.949 15.175C66.949 15.625 66.999 15.85 67.099 15.85C67.3824 15.8333 67.774 15.4833 68.274 14.8C68.774 14.1 69.2657 13.2083 69.749 12.125C70.249 11.0417 70.549 10.5 70.649 10.5C70.7657 10.5 70.824 10.5667 70.824 10.7C70.824 11.1667 70.5824 11.9083 70.099 12.925C68.7824 15.725 67.674 17.125 66.774 17.125ZM67.374 4.275C67.374 4.14167 67.3324 4.01667 67.249 3.9C67.1657 3.76667 67.124 3.65833 67.124 3.575C67.124 3.49167 67.2657 3.375 67.549 3.225C67.849 3.075 68.0907 3 68.274 3C68.4574 3 68.6324 3.1 68.799 3.3C68.9824 3.5 69.074 3.78333 69.074 4.15C69.074 4.71667 68.7157 5.26667 67.999 5.8C67.6657 6.05 67.274 6.26667 66.824 6.45C66.3907 6.63333 66.0657 6.725 65.849 6.725C65.649 6.725 65.549 6.65 65.549 6.5C65.549 6.41667 65.6657 6.30833 65.899 6.175C66.8657 5.70833 67.3574 5.075 67.374 4.275ZM87.2496 11.775C87.2496 14.4917 87.3996 15.85 87.6996 15.85C87.9996 15.85 88.3996 15.5083 88.8996 14.825C89.4163 14.125 89.9163 13.2333 90.3996 12.15C90.8996 11.05 91.1996 10.5 91.2996 10.5C91.4163 10.5 91.4746 10.5667 91.4746 10.7C91.4746 11.1667 91.1913 12.0167 90.6246 13.25C89.4079 15.8333 88.3163 17.125 87.3496 17.125C86.9829 17.125 86.6496 17.0833 86.3496 17C86.0496 16.9 85.8663 16.8083 85.7996 16.725C85.6329 16.525 85.5496 15.7917 85.5496 14.525C85.5496 11.525 85.6496 9.09167 85.8496 7.225C84.8829 8.175 83.9996 9.25833 83.1996 10.475C83.5496 11.8083 83.7246 12.9667 83.7246 13.95C83.7246 14.9167 83.5329 15.6667 83.1496 16.2C82.7829 16.7333 82.3163 17 81.7496 17C81.0663 17 80.7246 16.3417 80.7246 15.025C80.7246 14.125 81.0829 12.9333 81.7996 11.45C81.4663 10.2833 80.9829 9.14167 80.3496 8.025C80.0829 9.54167 79.6746 11.0917 79.1246 12.675C78.5746 14.2583 78.0079 15.4417 77.4246 16.225C76.8413 16.9917 76.1496 17.375 75.3496 17.375C74.7663 17.375 74.4746 17.15 74.4746 16.7C74.4746 16.3333 74.5996 16.075 74.8496 15.925C75.0996 15.775 75.3913 15.6667 75.7246 15.6C76.0746 15.5167 76.2996 15.425 76.3996 15.325C77.0496 14.6417 77.6579 13.475 78.2246 11.825C78.8079 10.175 79.2329 8.48333 79.4996 6.75C78.7829 5.81667 78.4246 5.125 78.4246 4.675C78.4246 4.20833 78.5413 3.8 78.7746 3.45C79.0246 3.1 79.4246 2.925 79.9746 2.925C80.1413 2.925 80.2829 3.14167 80.3996 3.575C80.5163 3.99167 80.5746 4.43333 80.5746 4.9C81.5913 6.38333 82.3663 7.91667 82.8996 9.5C83.8329 7.96667 84.8996 6.55 86.0996 5.25C86.6163 2.1 87.2163 0.524999 87.8996 0.524999C88.1329 0.524999 88.3746 0.699999 88.6246 1.05C88.8913 1.4 89.0246 1.75833 89.0246 2.125C89.0246 3.25833 88.5329 4.40833 87.5496 5.575C87.3496 6.99167 87.2496 9.05833 87.2496 11.775ZM82.0496 12.525C81.6496 13.4083 81.4496 14.2 81.4496 14.9C81.4496 15.5833 81.5329 15.925 81.6996 15.925C81.8663 15.925 81.9913 15.725 82.0746 15.325C82.1579 14.9083 82.1996 14.475 82.1996 14.025C82.1996 13.575 82.1496 13.075 82.0496 12.525ZM98.5838 11.575C99.2505 11.3583 99.7088 11.175 99.9588 11.025C100.225 10.8583 100.425 10.7333 100.559 10.65L100.859 10.475C100.942 10.425 101.009 10.4 101.059 10.4C101.192 10.4 101.259 10.475 101.259 10.625C101.259 10.775 101 11.0417 100.484 11.425C99.9671 11.7917 99.3255 12.125 98.5588 12.425C98.4421 13.825 98.0005 14.9583 97.2338 15.825C96.4671 16.6917 95.3755 17.125 93.9588 17.125C92.9255 17.125 92.1338 16.7167 91.5838 15.9C91.0338 15.0667 90.7588 14.1 90.7588 13C90.7588 11.8833 91.0838 10.8333 91.7338 9.85C92.4005 8.86667 93.2505 8.375 94.2838 8.375C94.7505 8.04167 95.3005 7.875 95.9338 7.875C96.5838 7.875 97.1838 8.21667 97.7338 8.9C98.2838 9.58333 98.5671 10.475 98.5838 11.575ZM96.9588 12.85L96.0588 12.9C95.2921 12.9 94.6421 12.675 94.1088 12.225C93.5755 11.7583 93.3088 11.25 93.3088 10.7C93.3088 10.15 93.4005 9.675 93.5838 9.275C92.8671 9.84167 92.5088 10.9583 92.5088 12.625C92.5088 13.425 92.6755 14.1917 93.0088 14.925C93.3421 15.6417 93.8671 16 94.5838 16C95.3005 16 95.8588 15.7 96.2588 15.1C96.6588 14.4833 96.8921 13.7333 96.9588 12.85ZM95.4088 8.7C95.1421 8.7 94.9338 8.825 94.7838 9.075C94.6338 9.30833 94.5588 9.56667 94.5588 9.85C94.5588 10.4667 94.7671 10.9667 95.1838 11.35C95.6171 11.7333 96.1171 11.925 96.6838 11.925H96.9838C96.9505 11.1083 96.8088 10.3667 96.5588 9.7C96.3255 9.03333 95.9421 8.7 95.4088 8.7ZM102.04 10.475L103.415 10.325C103.549 10.325 103.665 10.4 103.765 10.55C103.865 10.7 103.915 10.8583 103.915 11.025C103.915 11.1917 103.857 11.7583 103.74 12.725C103.64 13.6917 103.59 14.4583 103.59 15.025C103.59 15.575 103.64 15.85 103.74 15.85C104.024 15.8333 104.415 15.4833 104.915 14.8C105.415 14.1 105.907 13.2083 106.39 12.125C106.89 11.0417 107.19 10.5 107.29 10.5C107.407 10.5 107.465 10.5667 107.465 10.7C107.465 11.1667 107.224 11.9083 106.74 12.925C105.424 15.725 104.315 17.125 103.415 17.125C102.765 17.125 102.274 16.9917 101.94 16.725C101.824 16.6083 101.765 15.8833 101.765 14.55C101.765 13.2167 101.907 12.075 102.19 11.125C101.224 11.125 100.549 10.8167 100.165 10.2C99.9652 9.88333 99.8652 9.525 99.8652 9.125C99.8652 8.725 99.9486 8.375 100.115 8.075C100.282 7.775 100.515 7.625 100.815 7.625C101.132 7.625 101.415 7.79167 101.665 8.125C101.932 8.44167 102.065 8.8 102.065 9.2C102.065 9.6 101.949 10 101.715 10.4C101.782 10.45 101.89 10.475 102.04 10.475ZM113.262 17.125C112.612 17.125 112.121 16.9917 111.787 16.725C111.671 16.6083 111.612 16.3167 111.612 15.85C111.612 15.3667 111.629 14.725 111.662 13.925C111.229 15.0083 110.796 15.8167 110.362 16.35C109.946 16.8667 109.404 17.125 108.737 17.125C108.071 17.125 107.487 16.8167 106.987 16.2C106.487 15.5667 106.237 14.5833 106.237 13.25C106.237 11.9 106.612 10.7083 107.362 9.675C108.129 8.64167 109.129 8.125 110.362 8.125C110.896 8.125 111.496 8.475 112.162 9.175C112.296 8.99167 112.529 8.775 112.862 8.525C113.212 8.25833 113.504 8.125 113.737 8.125C113.987 8.125 114.112 8.44167 114.112 9.075C114.112 9.24167 114.062 9.56667 113.962 10.05C113.879 10.5333 113.779 10.8833 113.662 11.1C113.512 11.4833 113.437 12.8417 113.437 15.175C113.437 15.625 113.487 15.85 113.587 15.85C113.871 15.8333 114.262 15.4833 114.762 14.8C115.262 14.1 115.754 13.2083 116.237 12.125C116.737 11.0417 117.037 10.5 117.137 10.5C117.254 10.5 117.312 10.5667 117.312 10.7C117.312 11.1667 117.071 11.9083 116.587 12.925C115.271 15.725 114.162 17.125 113.262 17.125ZM110.212 9.125C109.746 9.125 109.246 9.475 108.712 10.175C108.196 10.8583 107.937 11.6667 107.937 12.6C107.937 13.5333 108.071 14.3 108.337 14.9C108.621 15.5 108.987 15.8 109.437 15.8C109.987 15.8 110.796 14.425 111.862 11.675C111.879 11.5417 111.896 11.3167 111.912 11C111.946 10.6667 111.971 10.4167 111.987 10.25C111.837 9.98333 111.571 9.73333 111.187 9.5C110.821 9.25 110.496 9.125 110.212 9.125ZM118.933 15.9C119.533 15.9 120.058 15.5917 120.508 14.975C120.958 14.3417 121.291 13.575 121.508 12.675C120.908 12.4917 120.449 12.175 120.133 11.725C119.816 11.2583 119.658 10.725 119.658 10.125C119.658 9.525 119.808 9 120.108 8.55C120.424 8.1 120.874 7.875 121.458 7.875C121.808 7.875 122.074 8.1 122.258 8.55C122.441 8.98333 122.533 9.475 122.533 10.025C122.533 10.575 122.491 11.125 122.408 11.675C122.658 11.775 122.924 11.825 123.208 11.825C123.858 11.825 124.483 11.525 125.083 10.925C125.383 10.625 125.583 10.475 125.683 10.475C125.799 10.475 125.858 10.5583 125.858 10.725C125.858 10.8917 125.749 11.0917 125.533 11.325C124.649 12.3083 123.533 12.8 122.183 12.8C121.866 14.0167 121.374 15.0417 120.708 15.875C120.041 16.7083 119.224 17.125 118.258 17.125C117.691 17.125 117.224 16.8833 116.858 16.4C116.241 15.6167 115.933 14.4667 115.933 12.95C115.933 12.4333 115.974 11.7667 116.058 10.95C116.141 10.1333 116.233 9.63333 116.333 9.45C116.449 9.26667 116.716 9.04167 117.133 8.775C117.566 8.50833 117.866 8.375 118.033 8.375C118.283 8.375 118.408 8.525 118.408 8.825C118.408 9.675 118.191 10.6 117.758 11.6C117.758 12.7833 117.849 13.8 118.033 14.65C118.233 15.4833 118.533 15.9 118.933 15.9ZM121.208 8.825C121.074 8.825 121.008 9.1 121.008 9.65C121.008 10.2 121.258 10.725 121.758 11.225C121.791 11.025 121.808 10.825 121.808 10.625C121.808 9.425 121.608 8.825 121.208 8.825ZM127.598 17.125C126.665 17.125 125.923 16.775 125.373 16.075C124.823 15.3583 124.548 14.55 124.548 13.65C124.548 11.8333 124.931 10.4583 125.698 9.525C126.465 8.59167 127.456 8.125 128.673 8.125C129.24 8.125 129.706 8.28333 130.073 8.6C130.44 8.9 130.623 9.31667 130.623 9.85C130.623 10.85 130.198 11.6917 129.348 12.375C128.515 13.0417 127.49 13.3917 126.273 13.425C126.34 14.075 126.556 14.6417 126.923 15.125C127.306 15.5917 127.748 15.825 128.248 15.825C128.748 15.825 129.198 15.7083 129.598 15.475C129.998 15.2417 130.365 14.9083 130.698 14.475C131.398 13.5583 131.998 12.5167 132.498 11.35C132.631 11.05 132.731 10.8333 132.798 10.7C132.881 10.5667 132.965 10.5 133.048 10.5C133.148 10.5 133.198 10.5667 133.198 10.7C133.198 11.5333 132.69 12.7833 131.673 14.45C130.573 16.2333 129.215 17.125 127.598 17.125ZM126.273 12.825C127.256 12.6583 127.973 12.3417 128.423 11.875C128.89 11.4083 129.123 10.8 129.123 10.05C129.123 9.3 128.881 8.925 128.398 8.925C127.815 8.925 127.323 9.33333 126.923 10.15C126.523 10.95 126.306 11.8417 126.273 12.825ZM136.347 10.925L136.547 9.65C136.547 9.46667 136.489 9.3 136.372 9.15C136.255 9 136.105 8.925 135.922 8.925C135.305 8.925 134.772 9.39167 134.322 10.325C133.872 11.2417 133.647 12.125 133.647 12.975C133.647 13.825 133.822 14.5167 134.172 15.05C134.522 15.5667 134.947 15.825 135.447 15.825C135.964 15.825 136.422 15.7083 136.822 15.475C137.222 15.2417 137.589 14.9083 137.922 14.475C138.622 13.5583 139.222 12.5167 139.722 11.35C139.855 11.05 139.955 10.8333 140.022 10.7C140.105 10.5667 140.189 10.5 140.272 10.5C140.372 10.5 140.422 10.5667 140.422 10.7C140.422 11.25 140.23 11.9083 139.847 12.675C139.464 13.4417 139.139 14.0333 138.872 14.45C138.622 14.85 138.297 15.275 137.897 15.725C137.064 16.6583 136.022 17.125 134.772 17.125C133.822 17.125 133.097 16.7917 132.597 16.125C132.114 15.4417 131.872 14.7167 131.872 13.95C131.872 12.05 132.28 10.6083 133.097 9.625C133.93 8.625 134.98 8.125 136.247 8.125C136.78 8.125 137.197 8.26667 137.497 8.55C137.814 8.81667 137.972 9.125 137.972 9.475C137.972 10.125 137.855 10.6083 137.622 10.925C137.389 11.2417 137.105 11.4 136.772 11.4C136.489 11.4 136.347 11.2417 136.347 10.925Z" fill="black"></path></svg> 